<svg width="86" height="54" viewBox="0 0 86 54" fill="none" xmlns="http://www.w3.org/2000/svg">
<g clip-path="url(#clip0_21_830)">
<path d="M2.988 46.984V13.288H12.744V17.68H8.604V42.592H12.744V46.984H2.988Z" fill="#7C90DB"/>
<path d="M43.396 20.344C44.932 20.344 46.288 20.656 47.464 21.28C48.664 21.88 49.6 22.816 50.272 24.088C50.968 25.336 51.316 26.944 51.316 28.912V40H45.7V29.776C45.7 28.216 45.376 27.064 44.728 26.32C44.08 25.576 43.168 25.204 41.992 25.204C41.176 25.204 40.444 25.396 39.796 25.78C39.148 26.14 38.644 26.692 38.284 27.436C37.924 28.18 37.744 29.128 37.744 30.28V40H32.128V29.776C32.128 28.216 31.804 27.064 31.156 26.32C30.532 25.576 29.632 25.204 28.456 25.204C27.64 25.204 26.908 25.396 26.26 25.78C25.612 26.14 25.108 26.692 24.748 27.436C24.388 28.18 24.208 29.128 24.208 30.28V40H18.592V20.632H23.956V25.924L22.948 24.376C23.62 23.056 24.568 22.06 25.792 21.388C27.04 20.692 28.456 20.344 30.04 20.344C31.816 20.344 33.364 20.8 34.684 21.712C36.028 22.6 36.916 23.968 37.348 25.816L35.368 25.276C36.016 23.764 37.048 22.564 38.464 21.676C39.904 20.788 41.548 20.344 43.396 20.344ZM56.3498 40V20.632H61.7138V26.104L60.9578 24.52C61.5338 23.152 62.4578 22.12 63.7298 21.424C65.0018 20.704 66.5498 20.344 68.3738 20.344V25.528C68.1338 25.504 67.9178 25.492 67.7258 25.492C67.5338 25.468 67.3298 25.456 67.1138 25.456C65.5778 25.456 64.3298 25.9 63.3698 26.788C62.4338 27.652 61.9658 29.008 61.9658 30.856V40H56.3498Z" fill="#FCFFFD"/>
<path d="M82.26 46.984H72.54V42.592H76.644V17.68H72.54V13.288H82.26V46.984Z" fill="#7C90DB"/>
</g>
<defs>
<clipPath id="clip0_21_830">
<rect width="86" height="54" fill="white"/>
</clipPath>
</defs>
</svg>
