<svg width="222" height="54" viewBox="0 0 222 54" fill="none" xmlns="http://www.w3.org/2000/svg">
<g clip-path="url(#clip0_21_834)">
<path d="M2.988 46.984V13.288H12.744V17.68H8.604V42.592H12.744V46.984H2.988Z" fill="#7C90DB"/>
<path d="M43.396 20.344C44.932 20.344 46.288 20.656 47.464 21.28C48.664 21.88 49.6 22.816 50.272 24.088C50.968 25.336 51.316 26.944 51.316 28.912V40H45.7V29.776C45.7 28.216 45.376 27.064 44.728 26.32C44.08 25.576 43.168 25.204 41.992 25.204C41.176 25.204 40.444 25.396 39.796 25.78C39.148 26.14 38.644 26.692 38.284 27.436C37.924 28.18 37.744 29.128 37.744 30.28V40H32.128V29.776C32.128 28.216 31.804 27.064 31.156 26.32C30.532 25.576 29.632 25.204 28.456 25.204C27.64 25.204 26.908 25.396 26.26 25.78C25.612 26.14 25.108 26.692 24.748 27.436C24.388 28.18 24.208 29.128 24.208 30.28V40H18.592V20.632H23.956V25.924L22.948 24.376C23.62 23.056 24.568 22.06 25.792 21.388C27.04 20.692 28.456 20.344 30.04 20.344C31.816 20.344 33.364 20.8 34.684 21.712C36.028 22.6 36.916 23.968 37.348 25.816L35.368 25.276C36.016 23.764 37.048 22.564 38.464 21.676C39.904 20.788 41.548 20.344 43.396 20.344ZM56.3498 40V20.632H61.9658V40H56.3498ZM59.1578 17.932C58.1258 17.932 57.2858 17.632 56.6378 17.032C55.9898 16.432 55.6658 15.688 55.6658 14.8C55.6658 13.912 55.9898 13.168 56.6378 12.568C57.2858 11.968 58.1258 11.668 59.1578 11.668C60.1898 11.668 61.0298 11.956 61.6778 12.532C62.3258 13.084 62.6498 13.804 62.6498 14.692C62.6498 15.628 62.3258 16.408 61.6778 17.032C61.0538 17.632 60.2138 17.932 59.1578 17.932ZM71.8219 36.04L71.9659 29.2L81.0019 20.632H87.6979L79.0219 29.452L76.1059 31.828L71.8219 36.04ZM67.1779 40V13.288H72.7939V40H67.1779ZM81.6139 40L75.0619 31.864L78.5899 27.508L88.4179 40H81.6139ZM102.472 40V36.22L102.112 35.392V28.624C102.112 27.424 101.74 26.488 100.996 25.816C100.276 25.144 99.16 24.808 97.648 24.808C96.616 24.808 95.596 24.976 94.588 25.312C93.604 25.624 92.764 26.056 92.068 26.608L90.052 22.684C91.108 21.94 92.38 21.364 93.868 20.956C95.356 20.548 96.868 20.344 98.404 20.344C101.356 20.344 103.648 21.04 105.28 22.432C106.912 23.824 107.728 25.996 107.728 28.948V40H102.472ZM96.568 40.288C95.056 40.288 93.76 40.036 92.68 39.532C91.6 39.004 90.772 38.296 90.196 37.408C89.62 36.52 89.332 35.524 89.332 34.42C89.332 33.268 89.608 32.26 90.16 31.396C90.736 30.532 91.636 29.86 92.86 29.38C94.084 28.876 95.68 28.624 97.648 28.624H102.796V31.9H98.26C96.94 31.9 96.028 32.116 95.524 32.548C95.044 32.98 94.804 33.52 94.804 34.168C94.804 34.888 95.08 35.464 95.632 35.896C96.208 36.304 96.988 36.508 97.972 36.508C98.908 36.508 99.748 36.292 100.492 35.86C101.236 35.404 101.776 34.744 102.112 33.88L102.976 36.472C102.568 37.72 101.824 38.668 100.744 39.316C99.664 39.964 98.272 40.288 96.568 40.288ZM112.811 40V20.632H118.175V26.104L117.419 24.52C117.995 23.152 118.919 22.12 120.191 21.424C121.463 20.704 123.011 20.344 124.835 20.344V25.528C124.595 25.504 124.379 25.492 124.187 25.492C123.995 25.468 123.791 25.456 123.575 25.456C122.039 25.456 120.791 25.9 119.831 26.788C118.895 27.652 118.427 29.008 118.427 30.856V40H112.811ZM137.645 40.288C135.437 40.288 133.493 39.856 131.813 38.992C130.157 38.128 128.873 36.952 127.961 35.464C127.049 33.952 126.593 32.236 126.593 30.316C126.593 28.372 127.037 26.656 127.925 25.168C128.837 23.656 130.073 22.48 131.633 21.64C133.193 20.776 134.957 20.344 136.925 20.344C138.821 20.344 140.525 20.752 142.037 21.568C143.573 22.36 144.785 23.512 145.673 25.024C146.561 26.512 147.005 28.3 147.005 30.388C147.005 30.604 146.993 30.856 146.969 31.144C146.945 31.408 146.921 31.66 146.897 31.9H131.165V28.624H143.945L141.785 29.596C141.785 28.588 141.581 27.712 141.173 26.968C140.765 26.224 140.201 25.648 139.481 25.24C138.761 24.808 137.921 24.592 136.961 24.592C136.001 24.592 135.149 24.808 134.405 25.24C133.685 25.648 133.121 26.236 132.713 27.004C132.305 27.748 132.101 28.636 132.101 29.668V30.532C132.101 31.588 132.329 32.524 132.785 33.34C133.265 34.132 133.925 34.744 134.765 35.176C135.629 35.584 136.637 35.788 137.789 35.788C138.821 35.788 139.721 35.632 140.489 35.32C141.281 35.008 142.001 34.54 142.649 33.916L145.637 37.156C144.749 38.164 143.633 38.944 142.289 39.496C140.945 40.024 139.397 40.288 137.645 40.288ZM150.744 40V20.632H156.36V40H150.744ZM153.552 17.932C152.52 17.932 151.68 17.632 151.032 17.032C150.384 16.432 150.06 15.688 150.06 14.8C150.06 13.912 150.384 13.168 151.032 12.568C151.68 11.968 152.52 11.668 153.552 11.668C154.584 11.668 155.424 11.956 156.072 12.532C156.72 13.084 157.044 13.804 157.044 14.692C157.044 15.628 156.72 16.408 156.072 17.032C155.448 17.632 154.608 17.932 153.552 17.932ZM170.932 40.288C168.844 40.288 166.984 39.868 165.352 39.028C163.72 38.164 162.436 36.976 161.5 35.464C160.588 33.952 160.132 32.236 160.132 30.316C160.132 28.372 160.588 26.656 161.5 25.168C162.436 23.656 163.72 22.48 165.352 21.64C166.984 20.776 168.844 20.344 170.932 20.344C172.972 20.344 174.748 20.776 176.26 21.64C177.772 22.48 178.888 23.692 179.608 25.276L175.252 27.616C174.748 26.704 174.112 26.032 173.344 25.6C172.6 25.168 171.784 24.952 170.896 24.952C169.936 24.952 169.072 25.168 168.304 25.6C167.536 26.032 166.924 26.644 166.468 27.436C166.036 28.228 165.82 29.188 165.82 30.316C165.82 31.444 166.036 32.404 166.468 33.196C166.924 33.988 167.536 34.6 168.304 35.032C169.072 35.464 169.936 35.68 170.896 35.68C171.784 35.68 172.6 35.476 173.344 35.068C174.112 34.636 174.748 33.952 175.252 33.016L179.608 35.392C178.888 36.952 177.772 38.164 176.26 39.028C174.748 39.868 172.972 40.288 170.932 40.288ZM194.509 20.344C196.045 20.344 197.413 20.656 198.613 21.28C199.837 21.88 200.797 22.816 201.493 24.088C202.189 25.336 202.537 26.944 202.537 28.912V40H196.921V29.776C196.921 28.216 196.573 27.064 195.877 26.32C195.205 25.576 194.245 25.204 192.997 25.204C192.109 25.204 191.305 25.396 190.585 25.78C189.889 26.14 189.337 26.704 188.929 27.472C188.545 28.24 188.353 29.224 188.353 30.424V40H182.737V13.288H188.353V25.996L187.093 24.376C187.789 23.08 188.785 22.084 190.081 21.388C191.377 20.692 192.853 20.344 194.509 20.344Z" fill="#FCFFFD"/>
<path d="M218.26 46.984H208.54V42.592H212.644V17.68H208.54V13.288H218.26V46.984Z" fill="#7C90DB"/>
</g>
<defs>
<clipPath id="clip0_21_834">
<rect width="222" height="54" fill="white"/>
</clipPath>
</defs>
</svg>
