<svg width="300" height="300" viewBox="0 0 300 300" fill="none" xmlns="http://www.w3.org/2000/svg">
<g clip-path="url(#clip0_21_684)">
<path d="M232.275 204.184C231.33 203.509 230.385 202.699 229.575 202.024C226.74 196.084 223.905 190.144 221.34 184.204C219.045 177.184 218.1 170.164 217.695 163.144C217.965 160.174 218.1 157.339 218.37 154.369V154.639C218.1 169.624 222.15 184.339 230.925 196.624C231.195 197.029 231.87 196.624 231.6 196.219C222.285 180.694 218.91 164.764 220.125 146.809C220.53 141.004 220.665 135.199 220.53 129.529C220.935 124.129 220.8 118.729 219.18 113.869C218.64 110.494 217.965 107.119 217.02 103.609V103.204C216.075 97.1288 215.13 91.3238 210.27 87.1388C210 86.8688 209.595 87.2738 209.865 87.5438C215.4 92.8088 215.805 101.314 216.75 108.469V108.739C216.615 108.874 216.615 108.874 216.615 109.009L217.02 113.464C216.885 113.059 216.21 113.329 216.345 113.734C216.48 114.139 216.615 114.544 216.75 114.814C216.885 116.704 216.885 118.729 216.75 120.619C216.345 120.619 216.075 120.484 215.67 120.484C215.805 117.244 215.805 114.004 215.805 110.899C215.805 110.089 214.59 110.089 214.59 110.899C214.59 112.114 214.455 113.329 214.455 114.544C214.185 114.544 214.05 114.814 214.05 115.084C214.185 116.569 214.185 117.919 214.185 119.404C214.185 119.809 214.185 120.214 214.05 120.619C212.97 120.754 212.025 120.889 211.215 120.889C205.005 121.159 198.795 121.294 192.45 121.429C169.233 121.969 146.007 121.969 122.79 121.429C111.045 121.159 99.03 120.079 87.42 120.754V120.619C87.15 120.079 86.475 120.079 86.205 120.619C85.935 120.484 85.665 120.484 85.395 120.619C85.125 120.079 84.18 120.079 84.045 120.754C83.37 124.264 82.83 128.989 83.235 133.039C83.1 143.029 83.91 152.884 83.235 162.604C82.965 164.359 82.695 166.249 82.425 168.004C83.64 154.909 83.64 141.544 82.425 128.719C82.965 109.954 84.18 87.6788 103.89 79.0388C104.16 78.9038 104.025 78.4988 103.755 78.6338C88.095 84.0338 82.965 101.314 81.885 116.164C81.75 117.649 81.615 119.269 81.615 120.754V120.484C81.615 120.214 81.075 120.214 81.075 120.619C81.21 123.454 81.21 126.289 81.345 129.124C81.075 136.009 80.94 142.759 80.13 149.509C78.645 161.794 75.405 173.539 72.3 185.419C72.165 185.824 72.84 185.959 72.975 185.554C77.7 173.539 80.265 160.579 81.615 147.619C81.48 159.094 80.94 170.434 79.86 182.044C79.86 182.179 79.725 182.449 79.725 182.584C79.725 182.719 79.59 182.989 79.59 183.124V183.529C78.78 187.309 77.835 191.224 77.16 195.139C77.025 195.814 77.43 196.219 77.835 196.354C77.025 199.054 76.215 201.889 75.405 204.589C75.27 204.994 75.945 205.129 76.08 204.724C76.35 203.914 76.62 203.239 76.89 202.429C76.485 203.779 76.215 205.129 75.81 206.479C75.675 206.884 76.215 207.019 76.35 206.614C78.645 200.269 80.67 193.789 82.155 187.309C83.235 183.664 84.18 180.019 84.99 176.104C85.53 174.484 85.935 172.999 86.34 171.379C86.205 172.999 86.07 174.754 85.935 176.374C85.53 178.669 84.99 180.829 84.585 182.989C84.45 182.854 84.18 182.989 84.18 183.124C80.805 194.059 77.565 205.264 74.865 216.334C74.73 216.874 75.405 217.009 75.54 216.469C76.35 213.769 77.16 211.204 77.97 208.504C78.24 209.044 79.05 209.179 79.32 208.639C79.995 207.424 80.535 206.074 81.075 204.724C79.455 209.719 77.835 214.714 76.08 219.709C75.945 219.979 76.485 220.249 76.62 219.979C79.86 212.419 82.29 204.589 84.315 196.624C83.775 199.324 83.1 202.024 82.425 204.589C82.29 205.129 82.695 205.399 83.1 205.534C81.75 210.124 80.535 214.579 79.32 219.169C79.32 219.439 79.32 219.574 79.455 219.844C79.32 220.114 79.185 220.384 79.185 220.654C79.05 221.059 79.725 221.329 79.86 220.924C79.995 220.789 80.13 220.519 80.13 220.249C80.535 220.384 80.805 220.249 81.075 219.844C84.18 213.499 86.475 206.614 88.095 199.594C89.175 196.759 90.12 193.789 90.795 190.684V191.629C89.715 197.164 88.5 202.564 87.15 208.099C85.395 213.634 83.37 219.169 81.615 224.704C81.48 225.109 82.155 225.379 82.29 224.974C82.965 223.489 83.64 222.004 84.18 220.384C84.045 220.924 83.91 221.599 83.775 222.274C83.64 223.084 84.18 223.624 84.855 223.624C84.855 223.894 84.72 224.164 84.72 224.434C84.72 224.704 85.125 225.109 85.395 224.704C85.665 223.894 86.07 223.084 86.34 222.274C87.555 219.844 88.77 217.279 89.715 214.714C89.58 215.254 89.445 215.929 89.31 216.469C89.175 217.009 89.58 217.549 90.12 217.549C89.445 220.384 88.77 223.354 88.23 226.324C88.23 226.729 88.635 226.864 88.77 226.459C90.12 222.679 91.065 218.899 91.74 215.119C92.685 212.959 93.63 210.529 94.44 208.234C93.09 214.849 91.335 221.194 89.985 227.809C89.85 228.349 90.525 228.484 90.66 227.944C92.55 222.409 93.63 216.604 94.71 210.799C94.575 212.689 94.44 214.444 94.305 216.199C93.225 221.599 92.01 226.864 91.47 232.264C91.47 232.669 92.01 232.669 92.145 232.399C92.685 230.374 93.225 228.349 93.63 226.324C94.17 226.594 94.845 226.459 95.25 225.784C95.25 225.649 95.25 225.649 95.385 225.649C95.52 225.649 95.52 225.514 95.655 225.514L95.25 228.349C95.25 229.024 95.79 229.429 96.33 229.429C96.33 229.834 96.195 230.239 96.195 230.509C96.195 230.914 96.735 231.049 96.87 230.644C97.14 229.834 97.41 229.024 97.68 228.079C98.22 226.999 98.76 225.919 99.165 224.839C98.76 226.999 98.22 229.024 97.95 231.184C97.815 231.724 98.49 231.859 98.625 231.319C99.705 228.349 100.38 225.109 100.92 222.004V222.949C100.92 223.084 101.055 223.354 101.055 223.489C100.38 226.324 99.57 229.024 98.895 231.859C98.76 232.264 99.435 232.669 99.705 232.129C100.785 229.564 101.595 226.729 102.135 223.894C102.405 223.759 102.81 223.624 102.945 223.219C102.945 223.084 103.08 223.084 103.08 222.949V224.029C103.08 224.434 103.35 224.704 103.62 224.839C103.215 226.999 102.81 229.294 102.81 231.454C102.81 231.994 103.485 231.994 103.755 231.589C104.565 229.159 104.835 226.729 105.24 224.164C105.51 223.759 105.645 223.354 105.915 222.814C105.78 225.244 105.78 227.674 105.915 229.969C105.915 230.779 106.725 231.184 107.4 231.184C107.4 231.994 107.265 232.939 107.265 233.749C107.265 234.289 108.075 234.424 108.21 233.884C108.615 231.994 108.885 230.104 109.155 228.079C109.29 227.809 109.29 227.539 109.425 227.404C109.56 230.509 109.56 233.614 109.695 236.854C109.695 237.124 110.235 237.259 110.235 236.989C110.64 234.694 110.775 232.399 110.775 229.969H110.91C110.91 231.724 111.045 233.344 111.18 235.099C111.18 235.639 111.99 235.639 111.99 235.099C112.26 233.074 112.395 231.049 112.395 229.024L112.8 226.999C112.935 229.429 113.205 231.859 113.61 234.154C113.745 234.694 114.555 234.559 114.555 234.019V231.589C114.825 231.859 115.23 231.859 115.5 231.454C116.175 229.834 116.715 228.079 117.255 226.324C117.525 226.324 117.12 233.344 118.2 232.804C119.28 232.264 120.63 224.974 121.305 223.759C129.675 216.874 142.77 213.904 152.625 213.769C165.045 213.634 182.73 240.229 188.13 237.529C190.29 238.204 185.565 228.889 187.455 228.619C188.13 231.724 189.345 234.694 190.965 237.394C191.1 237.529 191.505 237.529 191.37 237.259C190.695 235.504 190.02 233.749 189.48 232.129C189.48 232.129 189.48 232.264 189.615 232.264C190.29 233.209 191.505 232.669 191.37 231.454C190.965 229.159 190.29 226.864 189.615 224.704C190.965 227.809 192.855 230.644 195.555 232.669C196.365 233.209 197.715 232.804 197.31 231.589C196.5 229.699 195.69 227.809 194.745 225.919C195.555 226.999 196.5 227.809 197.58 228.754C197.985 229.024 198.39 229.159 198.795 229.024C199.2 229.564 199.605 230.239 200.01 230.779C200.28 231.184 200.955 230.644 200.685 230.239C200.28 229.564 200.01 229.024 199.605 228.349C199.74 228.079 199.74 227.674 199.605 227.134C198.795 225.784 198.12 224.434 197.31 223.084C197.985 223.759 198.66 224.434 199.335 224.974C199.74 225.244 200.145 225.379 200.55 225.244C201.765 226.729 203.25 227.944 204.87 228.889C205.14 229.024 205.545 228.619 205.275 228.349C204.06 226.999 202.845 225.649 201.765 224.299C201.9 224.029 201.9 223.624 201.63 223.219L200.82 222.004C201.9 223.084 203.115 224.029 204.33 224.839C204.465 224.839 204.465 224.974 204.6 224.974C204.735 224.974 204.735 225.109 204.87 225.109C205.95 225.784 207.165 226.459 208.38 226.999C208.92 227.269 209.46 226.459 208.92 226.189C207.435 225.109 206.085 224.029 204.735 222.814C206.76 224.029 208.92 224.839 211.35 224.839C211.755 224.839 211.89 224.164 211.485 224.029C207.84 223.084 204.87 221.464 202.17 218.899C203.52 219.709 205.005 220.384 206.625 220.924C208.785 222.409 211.08 223.489 213.51 224.164C214.05 224.299 214.32 223.624 213.915 223.354C212.025 222.274 210.135 221.194 208.515 219.979V219.439C209.055 219.709 209.46 219.439 209.595 218.899C210.675 219.844 211.755 220.654 213.105 221.194H213.375C214.32 221.599 215.4 221.734 216.48 221.869C216.885 221.869 217.02 221.329 216.885 221.059C217.695 221.329 218.64 221.464 219.45 221.464C219.99 221.464 219.99 220.789 219.585 220.654C219.045 220.519 218.505 220.249 217.965 220.114C218.37 219.979 218.64 219.574 218.775 219.169C219.72 219.439 220.665 219.439 221.745 219.439C222.285 219.439 222.285 218.764 221.88 218.629C221.07 218.359 220.26 217.954 219.45 217.684C220.395 217.819 221.34 217.819 222.285 217.684C222.69 217.549 222.69 217.009 222.285 216.874C220.665 216.604 218.91 215.929 217.02 214.984C217.155 214.849 217.29 214.714 217.29 214.444C219.855 215.389 222.42 215.929 224.31 216.064C224.715 216.064 224.85 215.524 224.445 215.254C222.96 214.714 220.53 214.039 218.235 213.094C218.64 213.094 218.91 212.824 219.045 212.419C220.125 213.094 220.935 211.744 220.26 210.799C220.125 210.529 219.855 210.394 219.72 210.124C220.125 210.394 220.53 210.799 221.07 211.069C221.475 211.339 221.88 211.204 222.15 210.934C223.095 211.744 224.04 212.419 224.985 213.094C225.795 213.634 226.47 212.554 225.93 211.879C225.66 211.609 225.525 211.339 225.255 211.204C226.335 211.744 227.55 212.149 228.765 212.419C229.17 212.554 229.44 211.879 229.035 211.744C226.2 209.989 223.5 208.234 221.07 206.074C221.475 206.209 221.88 206.209 222.15 206.074C223.635 207.424 225.255 208.774 226.875 209.989C227.55 210.529 228.36 209.449 227.82 208.774C226.47 207.154 224.985 205.669 223.635 204.184C223.77 204.049 223.905 203.779 223.77 203.374C225.525 205.534 227.415 207.424 229.44 209.179C229.98 209.584 231.06 209.044 230.52 208.369C229.575 207.019 228.63 205.804 227.55 204.454C228.9 205.669 230.385 206.749 232.005 207.559C232.41 207.829 232.95 207.289 232.545 206.884C231.33 205.669 230.25 204.589 229.17 203.374C229.44 203.374 229.71 203.104 229.71 202.834C229.71 202.834 229.845 202.834 229.845 202.969C229.98 203.104 229.98 203.104 230.115 203.104C231.06 203.644 232.005 204.049 233.085 204.454C232.14 204.994 232.545 204.454 232.275 204.184ZM218.91 132.634C218.91 131.554 218.775 130.474 218.64 129.529C218.775 129.664 218.91 129.799 219.18 129.664C219.045 130.609 219.045 131.689 218.91 132.634ZM219.315 126.424C219.315 127.099 219.315 127.774 219.18 128.584C219.18 127.774 219.045 126.964 219.045 126.154L219.315 125.884V126.424ZM218.235 114.139C218.64 116.704 218.91 119.404 219.045 122.104C218.91 121.969 218.91 121.834 218.775 121.834C218.505 118.999 218.37 116.299 217.965 113.464C218.1 113.734 218.1 113.869 218.235 114.139ZM86.475 169.489V168.274C86.88 165.979 87.285 163.549 87.555 161.119V161.794C87.285 164.224 86.88 166.924 86.475 169.489ZM92.28 202.834L93.09 197.164C93.225 197.164 93.36 197.299 93.63 197.299C93.225 199.054 92.685 200.944 92.28 202.834ZM195.69 206.209C195.555 205.939 195.555 205.669 195.42 205.399C196.905 208.234 198.795 211.069 200.955 213.499C198.795 211.474 197.04 209.044 195.69 206.209ZM214.86 212.284C214.725 212.149 214.725 212.014 214.59 211.879C215.13 212.149 215.535 212.554 216.075 212.824C215.67 212.689 215.265 212.554 214.86 212.284Z" fill="#DDBC9B"/>
<path d="M82.56 194.464C85.26 182.314 86.34 169.624 86.475 157.204C86.475 156.664 85.8 156.664 85.665 157.204C85.26 162.469 84.72 167.599 84.18 172.864C84.18 167.734 83.505 162.469 82.695 157.339C82.56 156.664 81.615 156.934 81.75 157.609C82.83 164.899 82.83 172.054 83.1 179.344C83.1 179.614 83.235 179.614 83.37 179.614C82.83 184.474 82.155 189.469 81.615 194.329C81.75 194.734 82.425 194.869 82.56 194.464ZM225.255 202.969C220.26 193.519 216.345 184.339 214.185 174.214C213.105 163.819 212.7 153.559 212.295 142.894C212.295 141.949 210.945 141.949 210.81 142.894C210 150.319 210 157.879 210.81 165.304C210.675 165.034 210.27 165.169 210.27 165.439C210.405 172.054 211.62 178.804 213.645 185.284C212.97 183.664 212.43 182.179 212.025 180.559C211.08 177.319 210.405 173.809 210 170.299C210 170.164 209.865 170.029 209.73 170.029C209.595 168.949 209.46 167.734 209.325 166.519C209.325 166.384 209.19 166.249 209.055 166.249C208.65 162.469 208.38 158.689 208.245 154.774C208.245 153.829 206.895 153.829 206.895 154.774C206.085 161.659 206.625 168.679 208.245 175.429C208.515 178.669 209.19 181.774 210.135 184.879C208.38 180.829 207.3 176.509 207.03 171.514C207.03 171.109 206.355 171.109 206.355 171.514V174.079C206.22 174.214 206.22 174.214 206.22 174.349C206.355 174.754 206.355 175.294 206.49 175.834C206.625 178.129 207.165 180.289 207.705 182.449C205.14 175.699 203.52 168.544 202.845 160.849C202.71 160.039 201.63 160.039 201.495 160.849C200.82 174.619 206.355 187.849 214.995 198.244V198.379C210.27 193.114 206.355 187.309 203.385 180.424C203.25 180.019 202.575 180.289 202.71 180.694C203.52 182.989 204.465 185.284 205.68 187.579C200.955 180.019 197.58 171.784 196.5 162.334C196.365 161.524 195.15 161.524 195.285 162.334C195.285 163.144 195.42 163.954 195.42 164.629C195.15 164.494 194.88 164.494 194.745 164.899C194.61 165.979 194.61 166.924 194.61 167.869C194.34 165.034 194.205 162.064 194.34 159.229C194.34 158.824 193.8 158.824 193.8 159.229C192.855 169.489 194.07 179.614 197.31 188.929C194.745 183.394 192.585 177.589 191.235 171.379C191.1 170.704 190.155 170.974 190.29 171.649C191.64 181.234 194.61 190.549 199.605 198.784C199.47 198.919 199.47 199.054 199.605 199.189C200.145 199.999 200.82 200.809 201.495 201.484C203.25 204.049 205.275 206.344 207.435 208.504C205.275 206.479 203.25 204.319 201.36 201.889C196.095 193.924 191.775 185.689 189.75 176.104C189.615 173.674 189.48 171.379 189.345 168.949C189.345 168.139 188.13 168.139 187.995 168.949C187.86 171.379 187.725 173.674 187.725 176.104C187.59 175.564 187.59 175.159 187.455 174.619C187.455 174.214 186.645 174.079 186.645 174.619C186.78 177.049 186.915 179.344 187.185 181.774C187.32 183.529 187.59 185.149 187.86 186.769C187.995 190.414 188.535 193.924 189.21 197.434C187.455 190.954 186.105 184.474 185.565 177.454C185.565 176.644 184.35 176.644 184.35 177.454C184.62 184.069 185.295 190.954 186.78 197.434C185.295 191.899 184.08 186.364 183.675 180.559C183.675 180.289 183.54 180.154 183.405 180.154V179.614C183.405 179.209 182.73 179.074 182.73 179.479C180.975 188.929 180.84 199.189 182.73 208.909C179.76 194.869 179.085 180.829 181.11 166.249C181.11 165.844 180.435 165.709 180.3 166.114C176.25 183.934 177.6 203.374 184.62 220.384C178.68 208.504 178.545 195.949 177.465 182.719C177.33 181.909 176.25 181.909 176.25 182.719C175.305 196.759 176.52 212.014 185.43 223.489C185.7 223.759 186.105 223.759 186.24 223.489C186.51 223.624 186.78 223.354 186.645 223.084C185.7 219.979 184.89 217.009 184.08 213.904C185.025 217.144 186.105 220.384 187.455 223.354C187.725 223.894 188.4 223.624 188.535 223.219C189.075 225.379 190.02 227.269 192.045 228.214C192.585 228.349 192.855 227.674 192.585 227.404C190.56 225.379 189.75 221.734 189.075 218.764C190.155 222.139 191.775 225.379 194.205 227.809C194.475 228.079 195.015 227.809 194.88 227.404C193.395 223.489 191.505 219.844 190.29 215.659C191.37 218.899 192.72 221.869 194.475 224.839C194.745 225.379 195.69 224.974 195.42 224.434L194.205 221.194C194.745 222.274 195.42 223.219 196.23 224.164C196.5 224.434 197.04 224.164 196.905 223.759C196.095 221.194 195.15 218.629 194.34 216.064C194.745 216.874 195.15 217.549 195.555 218.224C195.825 218.764 196.77 218.359 196.5 217.819L196.095 216.604C197.715 219.844 199.605 223.084 201.765 226.054C202.17 226.594 202.98 226.054 202.575 225.514C200.28 221.599 198.39 217.549 196.635 213.499C197.58 214.984 198.66 216.469 199.875 217.954C201.36 220.384 202.98 222.679 204.735 224.974C205.275 225.649 206.355 224.974 205.95 224.299C203.25 220.519 200.955 216.604 199.065 212.554C201.36 215.254 203.925 217.819 206.625 220.114C207.03 220.519 207.57 219.979 207.165 219.574C205.41 217.549 203.655 215.659 202.035 213.769C202.17 213.634 202.17 213.499 202.035 213.364C201.495 212.554 200.82 211.744 200.28 210.934C203.115 214.714 206.625 217.954 210.54 220.519C210.945 220.789 211.35 220.249 211.08 219.844C206.625 215.794 202.71 211.609 199.47 206.884L199.605 206.749C202.845 211.069 206.76 214.984 211.215 218.089C211.755 218.359 212.295 217.684 211.89 217.279C210.27 215.794 208.65 214.309 207.165 212.689C208.92 214.444 210.81 215.929 212.835 217.414C213.24 217.684 213.78 217.009 213.375 216.739C209.46 213.094 205.815 209.314 202.575 205.399C202.845 205.669 203.115 205.534 203.385 205.399C206.22 208.909 209.46 212.014 213.105 214.309C213.78 215.119 214.455 215.794 215.265 216.604C215.805 217.144 216.48 216.334 216.075 215.794C215.94 215.659 215.94 215.659 215.94 215.524C216.21 215.389 216.345 214.984 215.94 214.714C215.13 214.174 214.455 213.499 213.78 212.959C213.51 212.689 213.375 212.419 213.105 212.149C214.455 213.229 215.805 214.174 217.29 215.119C217.695 215.389 218.1 214.849 217.83 214.579C217.02 213.769 216.21 213.094 215.4 212.419C215.805 212.419 216.075 211.879 215.67 211.474C203.52 199.054 197.445 183.799 196.23 166.789C197.31 174.889 200.01 182.854 204.33 189.739C207.84 197.299 213.51 203.914 221.07 207.559C221.475 207.694 221.745 207.289 221.34 207.019C217.695 204.454 214.32 201.619 211.485 198.379C212.97 199.729 214.455 200.944 216.21 202.024C216.48 202.159 216.75 202.159 216.885 201.889C219.045 203.914 221.34 205.804 223.905 207.424C224.31 207.694 224.715 207.154 224.445 206.749C224.175 206.614 224.04 206.344 223.77 206.209C222.825 204.859 221.88 203.644 220.935 202.294C221.07 202.294 221.07 202.159 221.07 202.159C221.34 202.564 221.61 202.834 221.88 203.239C222.285 203.644 222.96 203.104 222.69 202.699C222.15 201.889 221.745 201.214 221.34 200.404H221.475C222.285 201.484 222.96 202.564 223.77 203.644C224.04 204.049 224.715 203.509 224.445 203.104C223.635 201.754 222.96 200.404 222.285 199.054C223.095 200.404 223.905 201.754 224.85 203.104C224.715 203.914 225.525 203.509 225.255 202.969ZM185.835 209.044C185.835 210.934 186.105 212.824 186.24 214.714C185.295 210.124 184.485 205.534 183.945 200.944C184.485 203.509 185.025 206.344 185.835 209.044ZM192.855 194.194L191.64 191.359C191.505 190.414 191.37 189.604 191.235 188.659C191.37 189.064 191.505 189.334 191.64 189.739C191.505 189.874 191.505 189.874 191.505 190.009C193.665 195.544 196.5 200.809 200.01 205.534C197.31 202.024 194.88 198.244 192.855 194.194ZM207.3 208.639C207.435 208.774 207.435 208.774 207.57 208.774L207.975 209.179C207.84 209.044 207.57 208.774 207.3 208.639ZM211.35 209.719C210.27 208.774 209.19 207.829 208.245 206.884C207.435 205.534 206.49 204.319 205.68 202.969C207.435 205.399 209.325 207.694 211.35 209.719ZM223.635 194.464C220.53 188.119 218.235 182.044 216.75 175.564C217.02 175.564 217.29 175.429 217.155 175.159C215.94 168.814 214.995 162.604 215.265 156.124C215.265 155.719 214.59 155.719 214.59 156.124C214.59 156.934 214.455 157.744 214.455 158.554C214.32 158.554 214.185 158.689 214.185 158.824C213.24 171.244 215.805 184.339 222.96 194.734C223.23 195.139 223.77 194.869 223.635 194.464ZM216.345 140.059C217.02 137.494 217.425 134.794 217.425 132.094C217.425 134.659 217.56 137.089 217.155 139.654C217.155 140.059 217.695 140.194 217.695 139.789C218.37 136.954 218.775 133.714 218.1 130.744C217.965 130.339 217.29 130.474 217.29 130.879C217.29 129.664 217.155 128.314 217.02 127.099C216.885 126.559 216.21 126.559 216.21 127.099C216.075 131.419 215.67 135.604 215.4 139.924C215.67 140.464 216.21 140.464 216.345 140.059ZM86.745 137.764C86.61 136.819 86.61 135.874 86.475 134.929C86.61 135.739 86.745 136.684 86.745 137.494C86.745 137.899 87.555 138.034 87.555 137.494C87.285 133.714 87.285 129.799 86.61 126.019C86.61 125.884 86.475 125.749 86.34 125.749V123.859C86.34 123.454 85.665 123.319 85.665 123.724C84.855 128.449 85.125 133.039 85.935 137.764C86.07 138.304 86.88 138.304 86.745 137.764ZM83.91 138.034C83.64 132.094 83.64 126.289 83.64 120.349C83.64 119.944 82.965 119.809 82.965 120.214C81.885 126.019 82.155 132.229 83.505 138.034C83.505 138.304 83.91 138.304 83.91 138.034ZM120.225 180.424C120.09 195.274 121.035 209.719 115.905 223.894C116.175 222.544 116.445 221.059 116.58 219.709C119.28 206.209 119.955 192.304 118.605 178.534C118.605 178.399 118.605 178.399 118.47 178.399V177.859C118.335 177.319 117.525 177.184 117.525 177.859C117.525 181.774 117.525 185.554 117.39 189.469C117.255 187.444 117.12 185.419 116.85 183.259C116.715 182.584 115.77 182.584 115.77 183.259C115.77 193.249 116.175 203.239 115.635 213.094C115.365 215.119 115.095 217.144 114.69 219.034C115.77 208.639 116.04 198.109 115.365 187.579C115.095 180.424 114.15 173.269 112.53 166.384C112.395 165.574 111.045 165.844 111.18 166.519C111.315 168.409 111.45 170.434 111.585 172.324C111.45 171.919 111.45 171.514 111.315 171.109C111.18 170.434 110.235 170.434 109.965 170.974C109.695 168.814 109.425 166.654 109.02 164.494C108.885 163.684 107.535 163.954 107.67 164.629C107.67 166.249 107.805 167.869 107.94 169.624C107.4 165.979 106.725 162.469 105.78 158.959C105.645 158.149 104.295 158.284 104.43 159.094C104.565 160.309 104.7 161.659 104.835 162.874C104.565 162.874 104.295 163.144 104.295 163.549C104.16 164.764 104.16 165.979 104.025 167.194C103.89 165.979 103.755 164.899 103.62 163.684C103.485 163.144 102.675 163.279 102.675 163.819C102.675 164.764 102.675 165.709 102.81 166.654C102.27 162.199 101.46 157.879 100.11 153.559C99.975 153.019 99.165 153.289 99.165 153.829V154.099C98.895 153.829 98.355 153.964 98.085 154.234C98.085 153.019 97.95 151.804 97.95 150.589C97.95 149.914 96.87 149.779 96.87 150.589C96.735 152.884 96.6 155.179 96.6 157.474C96.465 156.799 96.33 156.124 96.195 155.314C96.06 154.774 95.115 154.909 95.115 155.449C95.25 158.824 95.385 162.199 95.385 165.574C94.98 165.574 94.71 165.844 94.71 166.384L94.305 171.244C94.035 171.244 93.9 171.379 93.9 171.649C93.9 173.944 93.765 176.104 93.63 178.264C93.63 178.669 93.495 179.074 93.495 179.479C93.495 177.724 93.36 175.969 93.225 174.214C93.9 165.439 93.9 156.664 92.955 147.889C92.82 146.944 91.47 146.944 91.47 147.889C91.47 150.184 91.335 152.479 91.335 154.909C91.065 151.534 90.66 148.294 89.985 145.054C89.85 144.379 88.77 144.514 88.77 145.189C89.175 152.074 89.31 158.689 89.175 165.304C88.905 165.169 88.5 165.169 88.5 165.574C87.825 177.319 86.34 188.524 83.91 200.134C83.775 200.809 84.72 201.079 84.99 200.404C85.125 199.999 85.26 199.594 85.26 199.324C85.26 199.729 85.665 199.999 86.07 199.864C84.855 204.859 83.64 209.719 82.29 214.849C82.155 215.389 82.965 215.794 83.235 215.254C85.125 210.799 86.61 206.209 87.96 201.484C87.285 205.804 86.61 209.989 85.8 214.444C85.8 214.579 85.665 214.714 85.665 214.849C85.53 215.389 86.34 215.659 86.475 215.254C88.23 211.069 89.85 206.479 90.93 201.889C90.39 205.129 89.715 208.504 88.905 211.879C88.77 212.554 89.715 212.824 89.985 212.149C90.39 210.799 90.795 209.584 91.2 208.234C91.065 208.909 90.93 209.719 90.66 210.394C90.525 210.934 91.335 211.204 91.47 210.664C92.55 207.829 93.36 204.994 94.035 202.024C94.035 202.429 93.9 202.834 93.9 203.239C93.9 203.779 94.575 204.049 94.98 203.644C94.44 206.209 93.765 208.909 93.09 211.609C92.955 212.014 93.63 212.149 93.765 211.744C97.14 203.374 98.49 194.059 98.49 185.014C98.49 184.744 98.085 184.744 98.085 185.014C97.545 190.684 96.6 196.219 95.385 201.754C97.14 192.169 98.22 182.179 97.95 172.324C97.95 171.244 98.085 170.164 98.085 169.219C98.895 179.884 99.03 190.414 97.95 201.079C97.275 205.534 96.33 209.854 95.52 214.309C95.385 214.714 95.925 214.849 96.06 214.444C98.085 209.044 99.165 203.239 99.57 197.434C100.11 193.114 100.515 188.794 100.515 184.474C100.785 187.444 100.92 190.414 101.055 193.384C99.975 200.809 98.625 208.234 96.87 215.659C96.735 216.064 97.41 216.199 97.545 215.794C98.895 211.744 99.975 207.559 100.65 203.374C99.975 211.069 98.76 218.494 96.87 226.189C96.735 226.594 97.41 226.864 97.545 226.324C99.705 220.384 101.19 213.904 101.73 207.424C101.325 213.229 100.38 219.034 99.435 225.109C99.3 225.649 99.975 225.784 100.245 225.379C100.38 225.109 100.38 224.839 100.515 224.704C100.65 224.839 100.785 224.839 100.92 224.569C101.595 222.949 102.135 221.194 102.675 219.574C102.945 219.844 103.485 219.844 103.62 219.304C104.16 216.064 104.7 212.689 104.97 209.314C105.24 206.884 105.51 204.319 105.645 201.754C105.645 201.619 105.645 201.619 105.51 201.619C105.645 199.054 105.645 196.489 105.78 194.059C105.78 193.789 105.645 193.654 105.51 193.654C105.51 191.764 105.375 189.739 105.375 187.849C105.645 190.954 106.05 194.059 106.32 197.164C105.915 204.184 105.51 211.069 105.105 218.089C104.835 219.439 104.565 220.924 104.295 222.274C104.16 222.679 104.7 222.814 104.835 222.409C104.97 221.734 105.24 221.194 105.375 220.519C105.51 220.519 105.645 220.384 105.645 220.249C105.78 219.709 105.915 219.034 106.05 218.359C106.185 218.359 106.185 218.494 106.32 218.494C105.915 221.734 105.645 224.839 105.51 228.079C105.51 228.619 106.32 228.754 106.455 228.214C107.265 224.299 107.94 220.249 108.48 216.199C108.345 218.359 108.21 220.384 107.94 222.544C107.94 222.949 108.48 222.949 108.615 222.679C109.695 217.414 110.235 212.149 110.37 206.749C110.37 210.664 110.505 214.714 110.505 218.629C110.37 221.194 110.37 223.894 110.37 226.459C110.37 226.729 110.37 227.134 110.235 227.404C110.235 227.539 110.235 227.539 110.37 227.674V228.214C110.37 229.024 111.45 228.889 111.45 228.214C111.72 228.214 111.855 228.079 111.855 227.809C113.205 219.709 113.475 210.799 112.935 202.159C113.07 201.214 113.07 200.269 113.07 199.324C113.205 203.239 113.34 207.289 113.34 211.339C113.34 211.474 113.475 211.609 113.475 211.744C113.205 216.739 112.935 221.734 112.53 226.729C112.53 227.404 113.475 227.539 113.61 226.864C114.015 224.434 114.285 222.004 114.555 219.574C114.555 219.709 114.69 219.979 114.825 219.979C114.555 222.004 114.285 224.029 113.88 226.054C113.745 226.999 115.095 227.404 115.365 226.459L115.77 224.434C115.905 224.704 116.445 224.974 116.58 224.569C122.655 210.799 122.79 195.274 121.17 180.424C121.17 179.749 120.225 179.749 120.225 180.424ZM90.66 171.784V170.839C90.66 170.569 90.795 170.164 90.795 169.894C90.66 170.434 90.66 171.109 90.66 171.784ZM98.22 162.334C98.22 162.199 98.085 162.199 98.085 162.064V158.149C98.22 159.904 98.355 161.659 98.49 163.279C98.355 163.009 98.22 162.604 98.22 162.334ZM102.945 192.304C102.81 191.764 102.81 191.089 102.675 190.549C102.81 189.604 102.81 188.794 102.945 187.849V192.304ZM101.595 188.659C101.46 185.689 101.46 182.719 101.46 179.614C101.595 182.584 101.595 185.554 101.595 188.659ZM101.865 202.699C101.865 200.944 101.865 199.189 101.73 197.434C101.73 197.164 101.73 197.029 101.865 196.759C102 198.784 102 200.809 101.865 202.699ZM109.965 196.624V196.084C109.965 195.949 109.965 195.949 109.83 195.814V194.464C109.83 192.439 109.83 190.279 109.965 188.254V196.624Z" fill="#CEA57C"/>
<path d="M239.7 262.639C224.985 253.729 202.44 251.299 192.45 246.304C185.835 242.929 180.165 239.959 180.435 222.274C180.705 204.589 183 165.034 183 165.034H116.715C116.715 165.034 118.875 204.724 119.28 222.274C119.685 239.824 113.61 243.334 107.265 246.304C97.2749 251.029 74.7299 253.594 60.0149 262.639C45.4349 271.549 46.5149 288.154 46.5149 288.154V314.749H253.47V288.154C253.335 288.154 254.415 271.549 239.7 262.639Z" fill="#F0C7B1"/>
<path opacity="0.65" d="M183 165.169H116.715C116.85 167.599 118.875 205.264 119.28 222.274C119.415 225.784 119.145 228.754 118.875 231.184C134.94 244.954 149.925 243.334 149.925 243.334C149.925 243.334 164.91 244.954 180.975 231.319C180.57 228.889 180.435 225.919 180.435 222.409C180.705 205.129 182.865 167.599 183 165.169Z" fill="#D19271"/>
<path d="M121.17 229.834C121.845 236.314 123.465 242.524 125.355 248.599C126.435 251.704 127.515 254.809 128.865 257.914C129.945 260.614 131.16 263.584 133.05 265.879C133.455 266.419 134.4 265.879 134.265 265.204C133.59 262.234 132.105 259.399 131.025 256.564C129.81 253.594 128.73 250.624 127.65 247.654C125.625 241.714 123.87 235.639 122.115 229.699C121.845 229.159 121.035 229.294 121.17 229.834ZM176.925 228.484C175.17 239.554 171.66 250.219 169.635 261.154C169.5 261.694 170.175 261.829 170.445 261.424C174.63 251.029 175.98 239.689 177.33 228.619C177.195 228.349 176.925 228.349 176.925 228.484ZM142.095 244.549C140.88 249.409 144.66 256.159 150.465 254.809C151.14 254.674 151.005 253.729 150.465 253.459C148.575 252.784 146.55 252.244 145.2 250.624C143.715 249.004 143.175 246.709 143.31 244.549C143.31 244.009 142.23 243.874 142.095 244.549Z" fill="#D19271"/>
<path d="M254.28 314.749C254.145 305.839 253.875 297.064 253.875 288.154L253.47 287.749C253.605 287.749 253.605 287.749 253.74 287.884C253.875 288.019 253.875 288.154 253.875 288.019V286.129C253.875 285.454 253.74 284.914 253.74 284.239C253.605 283.024 253.335 281.674 253.065 280.459C252.39 278.029 251.58 275.599 250.365 273.304C248.07 268.714 244.425 264.934 239.97 262.369C235.11 259.399 229.71 257.239 224.31 255.484C218.91 253.729 213.375 252.244 207.975 250.759C202.575 249.139 197.04 247.789 192.045 245.089C189.48 243.739 187.185 242.254 185.565 240.229C183.945 238.069 183 235.504 182.46 232.804C181.38 227.404 181.92 221.734 182.055 216.064L183 199.054L185.025 165.034L185.16 163.144H183.27C172.2 163.144 161.13 163.144 150.06 163.279L116.85 163.684H115.635L115.77 164.899C116.85 180.964 117.93 197.029 118.605 213.094C118.74 217.144 119.01 221.194 118.875 225.109C118.74 229.024 118.335 233.074 116.715 236.719C115.905 238.474 114.825 240.094 113.475 241.444C112.125 242.794 110.37 243.874 108.615 244.684C105.105 246.439 101.325 247.654 97.41 248.734C89.58 250.759 81.75 252.514 74.055 255.079C70.275 256.294 66.36 257.779 62.715 259.669C60.96 260.614 59.07 261.559 57.315 262.909C55.56 264.124 54.075 265.474 52.59 267.094C49.755 270.199 47.73 274.114 46.515 278.029C45.84 280.054 45.435 282.079 45.165 284.239C45.03 285.319 45.03 286.399 45.03 287.479V290.584L44.76 314.749V316.504H46.65L98.355 316.774C115.635 316.909 132.78 316.909 150.06 316.774C167.34 316.639 184.62 316.639 201.765 316.369C219.045 316.099 236.325 315.694 253.47 315.424H254.28V314.749ZM150.06 312.589H98.355L48.405 312.859L48.27 290.449V287.479C48.27 286.534 48.27 285.589 48.405 284.644C48.54 282.754 48.945 280.864 49.485 278.974C50.565 275.329 52.32 271.819 54.75 268.849C55.965 267.364 57.45 266.014 58.935 264.934C60.42 263.719 62.175 262.774 63.93 261.829C67.44 259.939 71.085 258.454 74.865 257.104C82.425 254.404 90.255 252.514 97.95 250.219C101.865 249.139 105.78 247.924 109.425 246.034C111.18 245.089 113.07 244.009 114.555 242.524C116.04 241.039 117.255 239.284 118.065 237.259C119.685 233.344 120.09 229.294 120.225 225.244C120.225 221.194 120.09 217.144 119.955 213.094L118.2 166.114L149.925 166.654C160.32 166.789 170.715 166.789 181.11 166.789C180.57 177.454 180.03 188.254 179.625 198.919C179.355 204.589 179.355 210.259 179.22 215.929C179.22 221.599 178.95 227.404 180.3 233.209C180.975 236.044 182.055 238.879 184.08 241.309C185.97 243.604 188.67 245.224 191.235 246.439C196.5 249.004 202.035 250.219 207.57 251.569C213.105 252.919 218.64 254.269 224.04 256.024C229.44 257.779 234.705 259.804 239.565 262.774C243.885 265.339 247.395 269.119 249.69 273.574C250.905 275.734 251.715 278.164 252.255 280.594C252.525 281.809 252.795 283.024 252.795 284.239C252.93 284.914 252.93 285.454 252.93 286.129V288.154L252.525 313.804C235.515 313.534 218.64 313.129 201.63 312.859C184.485 312.724 167.205 312.724 150.06 312.589Z" fill="#C27B55"/>
<path d="M256.98 315.289C256.98 291.664 254.82 279.244 254.82 279.244C250.77 260.344 225.255 254.674 213.375 252.109C192.855 248.059 186.24 242.389 186.24 242.389C186.24 242.389 177.6 263.989 149.115 263.989C120.63 263.989 112.935 241.579 112.935 241.579C112.935 241.579 105.78 247.114 84.315 251.164C72.57 253.729 48.81 260.479 44.76 279.379C44.76 279.379 42.6 291.799 42.6 315.424H256.98V315.289Z" fill="#7C90DB"/>
<path d="M257.385 300.574C257.25 295.714 257.115 290.719 256.71 285.859L256.305 282.214C256.17 280.999 256.035 279.784 255.765 278.434C255.225 275.869 254.28 273.574 252.93 271.279C250.365 266.824 246.315 263.314 242.13 260.614C237.81 257.914 233.22 255.889 228.495 254.269C223.77 252.649 218.91 251.434 214.185 250.354C209.46 249.409 204.735 248.194 200.145 246.709C197.85 245.899 195.69 245.089 193.53 244.144C192.45 243.604 191.37 243.199 190.29 242.659C189.75 242.389 189.21 242.119 188.805 241.849C188.4 241.579 187.86 241.174 187.455 241.039C187.32 240.904 187.185 240.904 187.05 240.769C186.105 240.364 185.025 240.769 184.62 241.714C183.945 243.199 183 244.819 182.055 246.304C180.975 247.789 179.895 249.139 178.68 250.489C176.25 253.054 173.415 255.349 170.31 257.239C164.1 260.884 156.675 262.639 149.385 262.774C142.095 262.909 134.535 261.424 128.19 257.644C121.845 253.864 116.58 248.059 113.745 241.309C113.745 241.309 113.745 241.174 113.61 241.174C113.34 240.904 112.935 240.769 112.665 241.039C110.775 242.389 108.48 243.469 106.32 244.279C104.025 245.224 101.73 246.034 99.435 246.709C94.71 248.194 89.985 249.274 85.26 250.219C75.675 252.244 65.955 254.944 57.45 260.479C53.265 263.179 49.35 266.689 46.785 271.144C45.435 273.304 44.49 275.734 43.815 278.299C43.68 278.569 43.68 278.974 43.545 279.244L43.41 280.189L43.14 282.079L42.735 285.724C41.655 295.579 41.25 305.434 41.115 315.289C41.115 316.234 41.925 317.179 42.87 317.179L96.87 317.449C114.825 317.449 132.915 317.314 150.735 317.179L204.465 316.774L254.28 315.964L257.25 315.424C257.385 310.294 257.385 305.569 257.385 300.574ZM229.71 314.614L202.71 314.209L149.115 313.534C131.295 313.399 113.61 313.264 95.925 313.264L44.625 313.534C44.625 304.354 44.76 295.174 45.57 286.129L45.975 282.484L46.11 280.729L46.245 279.784C46.245 279.514 46.38 279.244 46.38 278.974C46.92 276.814 47.73 274.519 48.81 272.494C51.105 268.444 54.48 264.934 58.395 262.234C62.31 259.534 66.765 257.374 71.22 255.619C75.675 253.864 80.4 252.514 85.26 251.569C90.12 250.624 94.845 249.409 99.57 247.924C101.865 247.114 104.295 246.304 106.59 245.359C108.615 244.549 110.64 243.604 112.665 242.389C114.15 245.764 116.04 248.734 118.335 251.569C120.765 254.539 123.735 257.104 127.11 259.129C133.725 263.314 141.555 265.069 149.25 265.204C156.945 265.339 164.91 263.854 171.795 260.074C175.305 258.184 178.41 255.754 181.11 252.919C183.405 250.489 185.295 248.059 186.915 245.089C187.455 245.359 187.995 245.764 188.535 246.034C189.615 246.574 190.83 247.249 191.91 247.654C194.205 248.734 196.5 249.544 198.93 250.354C203.655 251.839 208.515 253.054 213.375 253.999C222.825 255.889 232.275 258.454 240.51 263.314C244.56 265.744 248.205 268.849 250.77 272.764C251.985 274.654 252.93 276.949 253.605 279.109C253.875 280.189 254.01 281.404 254.145 282.619L254.55 286.264C255.09 291.124 255.63 295.984 255.9 300.844C256.17 305.704 256.44 310.699 256.71 315.424L229.71 314.614ZM66.63 272.629C68.52 276.949 69.87 281.404 70.95 285.994C71.49 288.289 72.03 290.584 72.435 292.879C72.84 295.174 73.245 297.469 73.65 299.899C74.325 304.219 75 308.539 75.54 312.859H75.81C76.08 308.539 76.08 304.084 75.81 299.629C75.405 294.904 74.73 290.044 73.65 285.319C73.11 283.024 72.435 280.594 71.625 278.299C70.815 276.004 69.87 273.709 68.655 271.684C67.575 269.524 66.225 267.499 64.605 265.609C63.255 264.124 61.905 262.639 60.285 261.424C60.15 261.424 60.15 261.559 60.015 261.559C61.365 263.044 62.445 264.664 63.525 266.284C64.605 268.309 65.685 270.469 66.63 272.629ZM226.335 299.764C226.74 297.469 227.145 295.039 227.55 292.744C227.955 290.449 228.36 288.154 229.035 285.859C230.115 281.269 231.465 276.814 233.355 272.494C234.3 270.334 235.38 268.309 236.595 266.284C237.54 264.799 238.62 263.179 239.835 261.829C239.7 261.694 239.565 261.694 239.565 261.559C238.08 262.639 236.73 263.989 235.515 265.474C234.03 267.364 232.68 269.389 231.465 271.549C230.25 273.709 229.305 275.869 228.495 278.164C227.685 280.459 227.01 282.754 226.47 285.184C225.39 289.909 224.715 294.634 224.31 299.494C224.04 304.219 223.905 309.079 224.31 313.804C224.985 309.079 225.66 304.489 226.335 299.764ZM171.525 266.284C164.505 270.199 156.27 271.549 148.17 271.009C146.145 270.874 144.12 270.739 142.095 270.469C140.07 270.199 138.18 269.794 136.155 269.254C134.265 268.714 132.375 268.039 130.485 267.229C128.73 266.419 126.84 265.474 125.22 264.394C121.845 262.234 118.74 259.534 116.175 256.564C113.475 253.594 111.18 250.219 109.425 246.709C112.125 254.269 117.255 261.154 124.14 266.014C127.515 268.444 131.43 270.334 135.48 271.549C137.505 272.089 139.665 272.629 141.69 272.899C143.85 273.169 145.875 273.439 148.035 273.439C152.22 273.574 156.54 273.439 160.725 272.494C164.91 271.549 168.96 270.064 172.605 267.904C176.25 265.744 179.49 263.044 182.325 260.074C185.16 257.104 187.725 253.864 189.885 250.489C184.485 256.564 178.68 262.369 171.525 266.284Z" fill="#455EBC"/>
<path d="M98.625 143.569C98.355 143.164 94.17 137.764 90.66 134.524C87.15 131.284 86.07 131.284 84.45 133.309C82.695 135.334 80.535 145.594 81.075 150.049C81.615 154.639 85.935 161.794 88.095 165.844C90.39 169.894 92.55 174.889 94.98 174.349C97.545 173.809 100.92 168.139 102.675 163.954C104.43 159.769 103.35 149.374 98.625 143.569Z" fill="#F0C7B1"/>
<path d="M103.755 155.854C103.89 157.069 104.025 158.149 104.025 159.364C104.025 160.579 104.025 161.659 103.755 162.874C103.62 163.414 103.485 164.089 103.35 164.629C103.215 165.169 102.945 165.574 102.81 166.114C102.405 167.059 102 168.004 101.46 168.949C100.515 170.704 99.435 172.459 97.95 173.809C97.275 174.484 96.465 175.159 95.52 175.564C94.98 175.699 94.305 175.699 93.765 175.564C93.225 175.294 92.685 174.889 92.28 174.484C90.66 172.729 89.715 170.704 88.635 168.679C87.69 166.654 86.61 164.764 85.665 162.874C84.72 160.849 83.64 158.959 82.83 156.934C82.425 155.854 81.885 154.909 81.615 153.829C81.21 152.749 80.94 151.669 80.805 150.454C80.535 148.159 80.805 145.864 80.94 143.704C81.21 141.544 81.615 139.384 82.02 137.224C82.29 136.144 82.56 135.064 83.1 134.119L83.505 133.309C83.64 133.039 83.91 132.769 84.045 132.634C84.315 132.229 84.72 131.824 85.26 131.554C85.665 131.284 86.34 131.149 86.88 131.149C87.42 131.284 87.96 131.554 88.365 131.824C89.31 132.364 89.985 133.174 90.795 133.849C93.765 136.819 96.195 140.329 98.76 143.569C101.325 146.809 103.08 151.264 103.755 155.854ZM90.12 134.794C88.635 133.579 86.88 132.229 85.935 133.174C85.665 133.309 85.395 133.714 85.125 133.984L84.72 134.389C84.585 134.524 84.585 134.794 84.45 134.929C84.045 135.739 83.775 136.684 83.37 137.629C82.695 139.519 82.155 141.544 81.885 143.704C81.48 145.729 81.21 147.889 81.345 150.049C81.48 151.129 81.75 152.209 82.155 153.154C82.56 154.234 82.965 155.179 83.37 156.124C84.315 158.149 85.395 159.904 86.475 161.794C87.555 163.684 88.77 165.439 89.85 167.329C90.39 168.274 90.93 169.219 91.47 170.029C92.01 170.839 92.55 171.784 93.225 172.324C93.9 172.864 94.44 173.134 94.98 172.864C95.655 172.594 96.195 172.054 96.87 171.379C98.085 170.029 99.03 168.544 99.975 166.789C100.515 165.979 100.92 165.034 101.325 164.224C101.595 163.819 101.73 163.279 101.865 162.874L102.135 162.199C102.135 161.929 102.27 161.794 102.27 161.524C102.675 159.634 102.81 157.474 102.675 155.314C102.54 153.154 102.135 150.994 101.46 148.834C100.785 146.674 99.84 144.784 98.49 143.164C95.925 140.329 93.09 137.359 90.12 134.794Z" fill="#E1AC8F"/>
<path d="M84.045 152.344C83.64 149.239 83.37 141.814 85.125 139.384C88.095 135.469 93.225 148.024 94.44 151.939C94.44 152.074 94.575 152.209 94.575 152.344C94.845 152.749 94.44 153.289 94.035 153.154C93.495 152.884 92.82 152.344 92.28 152.074C90.795 151.399 90.12 152.749 90.525 154.504C91.065 156.934 92.415 158.419 93.495 160.309C93.63 160.579 93.495 160.849 93.225 160.714C91.065 159.499 88.5 154.639 89.04 151.804C89.445 149.104 91.605 149.374 93.225 150.724C92.28 148.429 91.2 146.269 89.85 144.244C89.04 143.029 88.23 141.544 86.88 141.274C85.26 141.004 85.53 141.679 85.26 143.704C84.18 150.184 84.855 157.744 88.635 163.279C88.77 163.414 88.635 163.549 88.5 163.414C86.07 160.309 84.45 156.799 84.045 152.344Z" fill="#D19271"/>
<path d="M201.225 143.569C201.495 143.164 205.68 137.764 209.19 134.524C212.7 131.284 213.78 131.284 215.4 133.309C217.155 135.334 219.315 145.594 218.775 150.049C218.235 154.504 213.915 161.794 211.755 165.844C209.46 169.894 207.3 174.889 204.87 174.349C202.305 173.809 198.93 168.139 197.175 163.954C195.42 159.769 196.5 149.374 201.225 143.569Z" fill="#F0C7B1"/>
<path d="M201.225 143.569C203.79 140.329 206.355 136.819 209.19 133.849C209.865 133.174 210.675 132.364 211.62 131.824C212.025 131.554 212.565 131.284 213.105 131.149C213.645 131.014 214.32 131.284 214.725 131.554C215.13 131.824 215.535 132.229 215.94 132.634C216.075 132.769 216.21 133.039 216.48 133.309L216.885 134.119C217.29 135.064 217.695 136.144 217.965 137.224C218.505 139.384 218.91 141.544 219.045 143.704C219.315 145.864 219.45 148.159 219.18 150.454C219.045 151.669 218.64 152.749 218.37 153.829C217.965 154.909 217.56 155.989 217.155 156.934C216.21 158.959 215.265 160.984 214.32 162.874C213.24 164.899 212.295 166.789 211.35 168.679C210.27 170.569 209.46 172.729 207.705 174.484C207.3 174.889 206.76 175.294 206.22 175.564C205.68 175.834 205.005 175.834 204.465 175.564C203.385 175.159 202.71 174.484 202.035 173.809C200.685 172.324 199.605 170.704 198.525 168.949C197.985 168.004 197.58 167.059 197.175 166.114C196.905 165.574 196.77 165.169 196.635 164.629C196.5 164.089 196.23 163.549 196.23 162.874C196.095 161.659 195.96 160.579 195.96 159.364C195.96 158.149 196.095 157.069 196.23 155.854C196.77 151.264 198.525 146.809 201.225 143.569ZM201.36 143.704C200.01 145.324 199.065 147.349 198.39 149.374C197.715 151.534 197.31 153.694 197.175 155.854C197.04 158.014 197.175 160.174 197.58 162.064C197.58 162.334 197.715 162.469 197.715 162.739L197.985 163.414C198.12 163.819 198.39 164.359 198.525 164.764C198.93 165.709 199.335 166.519 199.875 167.329C200.82 168.949 201.9 170.569 202.98 171.919C203.52 172.594 204.195 173.134 204.87 173.404C205.41 173.674 205.95 173.404 206.625 172.864C207.3 172.324 207.84 171.514 208.38 170.569C208.92 169.759 209.46 168.814 210 167.869C211.08 165.979 212.295 164.089 213.375 162.334C214.455 160.444 215.535 158.554 216.48 156.664C217.02 155.719 217.425 154.639 217.695 153.694C218.1 152.614 218.37 151.534 218.505 150.589C218.64 148.429 218.37 146.269 217.965 144.244C217.56 142.219 217.02 140.194 216.48 138.169C216.21 137.224 215.805 136.279 215.4 135.469C215.265 135.334 215.265 135.064 215.13 134.929C214.995 134.794 214.995 134.659 214.725 134.524C214.455 134.254 214.185 133.849 213.915 133.714C212.97 132.904 211.215 134.254 209.73 135.334C206.76 137.359 203.925 140.329 201.36 143.704Z" fill="#E1AC8F"/>
<path d="M215.805 152.344C216.21 149.239 216.48 141.814 214.725 139.384C211.755 135.469 206.625 148.024 205.41 151.939C205.41 152.074 205.275 152.209 205.275 152.344C205.005 152.749 205.41 153.289 205.815 153.154C206.355 152.884 207.03 152.344 207.57 152.074C209.055 151.399 209.73 152.749 209.325 154.504C208.785 156.934 207.435 158.419 206.355 160.309C206.22 160.579 206.355 160.849 206.625 160.714C208.785 159.499 211.35 154.639 210.81 151.804C210.405 149.104 208.245 149.374 206.625 150.724C207.57 148.429 208.65 146.269 210 144.244C210.81 143.029 211.62 141.544 212.97 141.274C214.59 141.004 214.32 141.679 214.59 143.704C215.67 150.184 214.995 157.744 211.215 163.279C211.08 163.414 211.215 163.549 211.35 163.414C213.78 160.309 215.4 156.799 215.805 152.344Z" fill="#D19271"/>
<path d="M208.245 128.854V128.449C206.49 88.0838 180.3 65.8088 149.925 65.8088C119.55 65.8088 93.36 88.0838 91.74 128.449V128.854C91.74 132.904 91.74 169.624 99.435 185.419C119.82 227.404 149.925 225.649 149.925 225.649C149.925 225.649 180.03 227.539 200.55 185.419C208.245 169.624 208.245 132.904 208.245 128.854Z" fill="#F0C7B1"/>
<path d="M200.55 185.419C208.245 169.624 208.245 132.904 208.245 128.854V128.449C206.49 88.0838 180.3 65.8088 149.925 65.8088C119.55 65.8088 93.36 88.0838 91.74 128.449V128.854C91.74 132.904 91.74 169.624 99.435 185.419C119.82 227.404 149.925 225.649 149.925 225.649C149.925 225.649 180.03 227.539 200.55 185.419ZM133.32 217.954C127.65 215.659 121.845 210.529 117.39 206.074L114.15 202.699L111.18 198.919C110.1 197.704 109.29 196.354 108.345 195.004C107.535 193.654 106.59 192.439 105.645 190.954L103.35 186.769C102.54 185.419 101.73 183.934 101.19 182.584C99.84 179.884 99.03 176.779 98.085 173.674C96.465 167.464 95.385 160.984 94.575 154.504C93.765 148.024 93.225 141.409 92.955 134.929C92.82 131.689 92.685 128.314 92.955 125.209C93.09 123.589 93.09 121.969 93.36 120.349L94.17 115.489L94.305 114.274L94.575 113.059L95.25 110.764L95.925 108.469C96.06 107.659 96.465 106.984 96.735 106.174C97.275 104.689 97.815 103.069 98.49 101.584L100.65 97.2638C103.755 91.5938 107.805 86.4638 112.53 82.2788C117.255 78.0938 122.79 74.7188 128.73 72.5588C134.67 70.3988 140.88 69.1838 147.09 68.9138C153.3 68.6438 159.645 69.3188 165.72 70.9388C177.735 74.1788 188.67 81.6038 196.23 92.1338L198.93 96.1838C199.74 97.5338 200.415 99.0188 201.225 100.504C202.035 101.989 202.575 103.474 203.25 104.959C203.79 106.444 204.465 107.929 204.87 109.549L206.22 114.274C206.49 115.894 206.895 117.514 207.165 119.134L207.57 121.564L207.84 124.129C207.975 126.154 208.11 129.259 208.11 131.284C207.975 140.869 207.3 150.454 205.68 159.904C204.87 165.034 203.79 170.029 202.305 175.024C201.9 176.239 201.63 177.454 201.09 178.669C200.55 179.884 200.28 181.099 199.74 182.179C198.795 184.339 197.31 186.499 196.095 188.794C195.42 189.874 194.88 190.954 194.07 192.034L191.91 195.139C191.1 196.219 190.56 197.299 189.75 198.244L187.32 201.079C185.835 203.104 183.945 204.724 182.325 206.614C181.515 207.559 177.87 210.664 176.79 211.339C176.79 211.339 173.685 213.769 166.935 217.414C165.315 218.224 163.695 219.034 161.94 219.574C156.135 221.869 149.655 224.569 133.32 217.954Z" fill="#C27B55"/>
<path d="M128.5 184.717C128.5 184.717 128.527 188.092 129.999 190.603C129.999 190.603 135.831 196.718 143.364 201.943C143.62 202.132 154.488 203.509 157.35 202.496C157.35 202.496 168.636 195.49 171.106 190.184C171.106 190.184 171.997 187.565 171.66 185.77C171.66 185.77 163.101 188.146 159.064 188.74C155.028 189.347 144.727 188.74 139.611 187.97C134.481 187.201 129.796 185.378 128.5 184.717Z" fill="black"/>
<path d="M159.037 188.726C155.001 189.334 144.7 188.726 139.584 187.957C134.467 187.187 129.783 185.365 128.487 184.703C128.487 184.703 128.514 188.078 129.985 190.589L130.242 190.846C132.28 192.29 135.183 193.964 138.612 194.882C145.429 196.718 159.091 197.447 168.501 192.29C169.284 191.858 169.972 191.44 170.62 191.008C170.809 190.724 170.958 190.427 171.079 190.144C171.079 190.144 171.97 187.525 171.633 185.729C171.646 185.756 163.074 188.146 159.037 188.726Z" fill="white"/>
<path d="M172.321 185.392C172.537 185.122 172.321 184.73 171.943 184.744C169.635 185.446 168.217 185.729 166.435 186.215C164.842 186.647 154.137 187.579 150.384 187.552C138.004 187.282 132.307 185.297 128.649 184.312C128.352 184.231 128.055 184.555 128.19 184.771C127.906 186.472 129.621 190.751 129.621 190.778C132.874 195.26 137.923 199.148 142.581 202.186C145.888 204.332 155.041 203.981 157.282 203.212C160.468 202.01 163.735 198.932 165.868 196.894C167.839 195.004 170.647 191.494 171.579 190.009C171.97 189.415 172.2 188.699 172.348 188.011C172.524 187.309 172.753 186.148 172.321 185.392ZM164.842 196.57C161.575 199.594 157.188 201.443 156.985 201.457C154.42 201.686 151.855 201.808 149.263 201.713C147.427 201.646 143.607 201.173 143.445 201.065C140.974 199.81 138.544 198.163 136.344 196.3C134.197 194.491 131.592 192.358 130.188 190.333C129.31 188.834 128.811 187.295 129.027 185.311C135.372 188.645 143.445 190.09 150.519 190.144C154.366 190.171 158.119 189.658 161.859 188.902C164.734 188.321 168.663 187.7 171.309 186.094C171.268 186.526 171.282 186.985 171.214 187.403C171.093 188.159 171.525 190.468 164.842 196.57Z" fill="#DA7C87"/>
<path d="M135.08 145.992C135.08 145.992 133.925 143.555 131.36 141.76C128.795 140.093 125.204 138.297 119.818 139.58C114.431 140.862 111.353 143.812 109.43 146.377C109.43 146.377 109.943 147.018 111.225 147.788C112.508 148.557 117.253 151.25 122.511 150.994C127.769 150.737 132.515 147.788 133.412 147.275C134.31 146.89 135.08 145.992 135.08 145.992Z" fill="white"/>
<path d="M123.024 138.579C126.256 138.579 129.026 141.234 129.026 144.581C129.026 147.929 126.371 150.583 123.024 150.583C119.677 150.583 117.022 147.929 117.022 144.581C117.022 141.234 119.677 138.579 123.024 138.579Z" fill="#4E60A3"/>
<path d="M123.024 141.349C124.755 141.349 126.256 142.734 126.256 144.581C126.256 146.428 124.871 147.813 123.024 147.813C121.177 147.813 119.792 146.428 119.792 144.581C119.792 142.734 121.177 141.349 123.024 141.349Z" fill="black"/>
<path d="M122.216 141.926L121.523 141.234C121.293 141.003 121.062 140.888 120.715 140.888C120.485 140.888 120.138 141.003 119.907 141.234C119.677 141.465 119.561 141.696 119.561 142.042C119.561 142.388 119.677 142.619 119.907 142.85L120.6 143.542C120.831 143.773 121.062 143.889 121.408 143.889C121.639 143.889 121.985 143.773 122.216 143.542C122.562 142.965 122.678 142.273 122.216 141.926ZM125.102 147.351C126.14 147.351 126.14 145.735 125.102 145.735C124.063 145.735 124.178 147.351 125.102 147.351Z" fill="white"/>
<path d="M109.301 145.864C109.301 154.072 115.329 160.612 122.896 160.612C130.463 160.612 136.49 153.944 136.49 145.864C136.49 137.784 130.463 131.115 122.896 131.115C115.329 131.115 109.301 137.656 109.301 145.864ZM109.43 146.505C111.353 144.068 114.56 140.99 119.818 139.708C125.076 138.425 128.795 140.221 131.36 141.888C133.925 143.555 135.08 146.12 135.08 146.12C135.08 146.12 134.31 146.89 133.412 147.531C132.514 148.044 127.769 150.994 122.511 151.25C117.253 151.507 112.508 148.814 111.225 148.044C110.071 147.146 109.43 146.505 109.43 146.505Z" fill="#F0C7B1"/>
<path d="M134.438 142.145C128.795 137.528 121.998 136.63 115.201 138.81C114.944 138.938 114.816 138.554 115.073 138.425C121.485 135.604 129.565 137.271 134.567 142.016C134.695 142.016 134.567 142.145 134.438 142.145Z" fill="#E1AC8F"/>
<path d="M108.66 147.659C108.917 147.403 109.301 147.146 109.558 146.89C116.099 153.559 128.795 152.661 135.208 146.377C135.208 146.377 135.208 146.505 135.336 146.505C135.464 146.762 135.849 146.505 135.721 146.249C135.721 146.12 135.592 146.12 135.592 145.992C135.721 145.864 135.592 145.607 135.336 145.607C132.643 140.99 127.256 138.682 121.998 138.938C116.996 139.195 110.199 142.529 108.275 147.403C108.019 147.788 108.404 147.916 108.66 147.659ZM109.814 146.633C111.353 145.223 112.636 143.555 114.56 142.401C116.612 141.119 118.792 140.221 121.229 139.836C126.615 138.938 132.002 141.503 134.823 145.992C131.232 148.685 127.256 150.609 122.639 150.737C117.638 150.866 114.047 149.07 109.814 146.633Z" fill="black"/>
<path d="M164.772 145.992C164.772 145.992 165.926 143.555 168.491 141.76C171.056 140.093 174.647 138.297 180.034 139.58C185.42 140.862 188.498 143.812 190.422 146.377C190.422 146.377 189.909 147.018 188.627 147.788C187.344 148.557 182.599 151.25 177.341 150.994C172.082 150.737 167.337 147.788 166.439 147.275C165.542 146.89 164.772 145.992 164.772 145.992Z" fill="white"/>
<path d="M176.828 138.579C180.06 138.579 182.83 141.234 182.83 144.581C182.83 147.929 180.175 150.583 176.828 150.583C173.48 150.583 170.826 147.929 170.826 144.581C170.826 141.234 173.596 138.579 176.828 138.579Z" fill="#4E60A3"/>
<path d="M176.828 141.349C178.559 141.349 180.059 142.734 180.059 144.581C180.059 146.428 178.674 147.813 176.828 147.813C174.981 147.813 173.596 146.428 173.596 144.581C173.596 142.734 175.096 141.349 176.828 141.349Z" fill="black"/>
<path d="M176.135 141.926L175.443 141.234C175.212 141.003 174.981 140.888 174.635 140.888C174.404 140.888 174.057 141.003 173.827 141.234C173.596 141.465 173.48 141.696 173.48 142.042C173.48 142.388 173.596 142.619 173.827 142.85L174.519 143.542C174.75 143.773 174.981 143.889 175.327 143.889C175.558 143.889 175.904 143.773 176.135 143.542C176.481 142.965 176.597 142.273 176.135 141.926ZM179.021 147.351C180.06 147.351 180.06 145.735 179.021 145.735C177.982 145.735 177.982 147.351 179.021 147.351Z" fill="white"/>
<path d="M176.956 131.115C169.389 131.115 163.361 137.784 163.361 145.864C163.361 153.944 169.389 160.612 176.956 160.612C184.523 160.612 190.55 153.944 190.55 145.864C190.55 137.784 184.394 131.115 176.956 131.115ZM188.627 147.916C187.344 148.685 182.599 151.379 177.341 151.122C172.082 150.866 167.337 147.916 166.439 147.403C165.542 146.89 164.772 145.992 164.772 145.992C164.772 145.992 165.926 143.555 168.491 141.76C171.056 140.093 174.647 138.297 180.034 139.58C185.42 140.862 188.498 143.812 190.422 146.377C190.422 146.505 189.781 147.146 188.627 147.916Z" fill="#F0C7B1"/>
<path d="M165.413 142.145C171.056 137.528 177.854 136.63 184.651 138.81C184.907 138.938 185.036 138.554 184.779 138.425C178.367 135.604 170.287 137.271 165.285 142.016C165.157 142.016 165.285 142.145 165.413 142.145Z" fill="#E1AC8F"/>
<path d="M191.705 147.403C189.781 142.529 182.984 139.195 177.982 138.938C172.724 138.682 167.337 140.99 164.644 145.607C164.516 145.607 164.259 145.864 164.387 145.992C164.387 146.12 164.259 146.12 164.259 146.249C164.131 146.505 164.516 146.762 164.644 146.505C164.644 146.505 164.644 146.377 164.772 146.377C171.185 152.789 183.881 153.687 190.422 146.89C190.679 147.146 190.935 147.403 191.32 147.659C191.448 147.916 191.833 147.788 191.705 147.403ZM177.212 150.737C172.595 150.609 168.62 148.557 165.029 145.992C167.85 141.375 173.237 138.938 178.623 139.836C180.932 140.221 183.24 141.119 185.292 142.401C187.216 143.555 188.498 145.223 190.037 146.633C185.805 149.07 182.214 150.866 177.212 150.737Z" fill="black"/>
<path d="M114.309 128.687C114.534 128.43 114.767 128.294 115.001 128.157C115.234 128.021 115.468 127.884 115.822 127.739C116.289 127.466 116.757 127.193 117.353 127.032C117.941 126.75 119.005 126.315 119.636 126.632C121.643 125.771 124.461 126.057 126.467 126.88C129.026 126.943 131.749 127.596 133.78 128.779C133.91 128.89 134.039 129.002 134.048 129.121L135.163 129.405C136.529 129.791 138.016 130.169 139.39 130.676C139.511 130.667 139.641 130.779 139.762 130.77C140.263 130.976 140.427 131.566 140.081 131.831C139.969 131.959 139.977 132.079 139.744 132.215C138.826 133.001 137.34 132.623 136.224 132.339C135.23 132.047 134.228 131.636 133.45 130.968C132.456 130.676 131.453 130.264 130.563 129.724C130.442 129.733 130.312 129.621 130.191 129.63C128.479 129.508 126.733 128.907 125.229 128.29L125.108 128.298C124.244 128.117 123.388 128.056 122.419 128.124C121.2 128.088 120.015 128.531 118.779 128.256L118.658 128.264C118.424 128.401 118.182 128.418 117.949 128.554C116.885 128.989 116.046 129.168 114.836 129.252C114.714 129.26 114.585 129.149 114.576 129.029L114.455 129.038C114.455 129.038 114.196 128.815 114.309 128.687Z" fill="#2A232B"/>
<path d="M120.193 125.755C124.281 125.108 128.566 127.22 132.42 128.397C134.779 129.076 139.523 129.106 140.567 131.806C140.714 132.157 140.247 132.431 139.979 132.088C138.649 130.493 136.705 130.509 134.847 130.036C133.24 129.666 131.624 129.176 130.13 128.678C126.769 127.586 123.571 127.086 120.245 126.475C119.865 126.26 119.951 125.772 120.193 125.755Z" fill="#3A353A"/>
<path d="M141.886 131.575C142.121 129.755 139.285 129.23 137.919 128.844C134.556 127.754 131.184 126.545 127.726 125.822C125.625 125.366 123.541 125.15 121.482 125.292C119.908 125.401 118.343 125.63 116.924 126.209C114.32 127.231 111.88 128.843 109.708 130.796C108.548 131.598 107.397 132.519 106.497 133.543C106.272 133.799 106.531 134.022 106.765 133.886C106.886 133.877 106.886 133.877 106.877 133.758C107.007 133.869 107.007 133.869 107.128 133.86C109.005 132.889 110.728 131.447 112.726 130.467C114.604 129.496 116.749 128.866 118.799 128.604L119.767 128.537C122.31 128.361 124.766 128.672 127.143 129.589C130.394 130.807 133.557 132.512 136.791 133.49C137.413 133.688 138.027 133.765 138.745 133.596C140.336 133.726 141.625 133.036 141.886 131.575ZM121.689 126.48C123.868 126.33 126.082 126.657 128.191 127.233C130.924 128.005 133.673 129.017 136.405 129.79C136.906 129.996 139.613 130.41 139.906 131.111C140.208 131.931 139.62 132.212 139.023 132.374C138.66 132.399 138.288 132.305 138.046 132.321C137.181 132.141 136.42 131.713 135.668 131.404C131.406 129.655 126.981 127.316 122.242 127.404L120.91 127.496C119.457 127.597 117.891 127.825 116.334 128.174C117.044 127.884 117.632 127.603 118.341 127.313C119.276 126.768 120.478 126.564 121.689 126.48Z" fill="#1B141C"/>
<path d="M185.052 126.723C184.779 126.517 184.521 126.431 184.264 126.345C184.007 126.259 183.75 126.172 183.373 126.102C182.859 125.93 182.344 125.757 181.727 125.72C181.092 125.564 179.96 125.354 179.409 125.792C177.266 125.356 174.567 126.207 172.777 127.42C170.286 128 167.758 129.192 166.017 130.761C165.914 130.897 165.81 131.032 165.827 131.151L164.795 131.654C163.539 132.31 162.163 132.981 160.924 133.755C160.804 133.772 160.7 133.907 160.58 133.923C160.133 134.226 160.096 134.837 160.49 135.026C160.627 135.129 160.643 135.248 160.9 135.334C161.962 135.917 163.338 135.245 164.37 134.742C165.282 134.254 166.177 133.648 166.798 132.837C167.71 132.349 168.605 131.743 169.363 131.034C169.483 131.018 169.587 130.883 169.707 130.866C171.357 130.4 172.94 129.458 174.283 128.548L174.403 128.532C175.211 128.18 176.036 127.947 176.998 127.816C178.183 127.534 179.435 127.728 180.588 127.208L180.708 127.191C180.965 127.278 181.205 127.245 181.462 127.331C182.594 127.541 183.453 127.546 184.655 127.383C184.775 127.366 184.878 127.231 184.862 127.112L184.982 127.096C184.982 127.096 185.189 126.825 185.052 126.723Z" fill="#2A232B"/>
<path d="M178.678 125.012C174.544 125.213 170.794 128.153 167.271 130.09C165.106 131.235 160.472 132.233 160.016 135.086C159.946 135.46 160.46 135.632 160.65 135.242C161.617 133.411 163.522 133.029 165.24 132.188C166.735 131.498 168.213 130.69 169.57 129.897C172.63 128.144 175.652 127.003 178.778 125.727C179.105 125.439 178.918 124.98 178.678 125.012Z" fill="#3A353A"/>
<path d="M162.062 136.639C162.663 136.557 163.368 136.341 163.953 136.14C167.033 134.512 169.637 132.1 172.58 130.369C174.715 128.989 177.054 128.188 179.579 127.846L180.541 127.716C182.722 127.542 184.85 127.859 186.873 128.312C189.034 128.867 190.884 129.828 193.061 130.503C193.181 130.486 193.302 130.47 193.285 130.351C193.285 130.351 193.405 130.335 193.422 130.454C193.679 130.54 193.886 130.27 193.613 130.064C192.517 129.244 191.319 128.558 189.896 128.024C187.379 126.669 184.637 125.465 181.875 124.991C180.366 124.711 178.769 124.685 177.222 125.016C175.178 125.292 173.184 125.926 171.223 126.797C167.989 128.204 164.942 130.071 161.878 131.818C160.622 132.473 157.956 133.561 158.566 135.295C159.23 136.538 160.636 136.953 162.062 136.639ZM181.046 126.073C181.801 126.213 182.556 126.353 183.19 126.509C181.594 126.483 179.997 126.457 178.571 126.771L177.248 126.95C172.592 127.823 168.749 131.009 164.943 133.584C164.271 134.038 163.616 134.611 162.808 134.963C162.584 135.114 162.223 135.163 161.863 135.212C161.141 135.31 160.49 135.035 160.734 134.153C160.875 133.408 163.437 132.455 163.885 132.152C166.381 130.724 168.86 129.177 171.389 127.986C173.334 126.996 175.432 126.227 177.596 125.934C178.575 125.923 179.794 125.879 181.046 126.073Z" fill="#1B141C"/>
<path d="M156.756 163.481C157.512 164.723 160.32 168.355 160.927 170.096C161.535 171.838 160.752 174.443 158.929 174.97C157.107 175.496 154.056 174.443 153.624 174.713C153.192 174.97 151.099 177.494 150.141 177.319C149.182 177.143 146.577 174.443 146.05 174.443C145.524 174.443 143.175 175.051 142.041 175.051C140.907 175.051 138.126 174.092 138.477 171.662C138.828 169.219 141.784 164.183 142.392 163.481C142.999 162.779 144.39 160.349 144.741 158.864C145.092 157.379 145.524 149.374 145.699 147.551C145.875 145.729 147.522 143.542 149.182 143.38C150.843 143.204 153.705 144.419 153.975 147.295C154.231 150.17 154.758 155.908 155.014 158.257C155.271 160.606 155.797 161.915 156.756 163.481Z" fill="#F0C7B1"/>
<path d="M146.712 135.28C145.578 140.005 145.416 145.054 144.903 149.873C144.363 155.044 143.364 160.376 143.431 165.574C143.431 165.992 144.079 166.1 144.174 165.668C145.227 160.916 145.362 155.867 145.848 151.034C146.374 145.877 147.333 140.518 147.171 135.334C147.171 135.091 146.779 135.01 146.712 135.28Z" fill="#C27B55"/>
<path d="M142.446 162.86C141.055 164.71 139.881 166.735 138.868 168.814C138.207 170.164 137.397 171.743 137.829 173.296C138.544 175.847 141.784 176.657 143.904 175.429C144.538 175.064 144.255 174.092 143.539 174.079C142.297 174.065 140.866 174.457 139.867 173.404C138.679 172.135 139.854 169.853 140.38 168.584C141.163 166.708 142.108 164.912 142.851 163.022C142.945 162.766 142.581 162.671 142.446 162.86Z" fill="#C27B55"/>
<path d="M142.243 173.377C146.077 173.093 146.806 177.926 150.438 178.034C153.556 178.129 153.813 173.431 156.769 173.579C157.12 173.593 157.228 173.107 156.945 172.945C153.583 170.96 152.962 176.806 149.871 176.441C148.035 176.225 146.739 173.525 145.092 172.756C143.971 172.229 143.161 172.27 142.081 172.783C141.784 172.904 141.933 173.404 142.243 173.377Z" fill="#C27B55"/>
<path d="M155.716 175.564C158.241 176.131 161.184 175.348 161.778 172.54C162.075 171.136 161.602 169.745 160.873 168.557C159.672 166.613 158.133 164.966 156.999 162.955C156.81 162.617 156.337 162.793 156.31 163.144C156.162 165.398 157.836 166.964 159.037 168.706C160.144 170.312 161.103 172.526 159.24 174.106C158.389 174.835 156.769 174.7 155.73 174.902C155.379 174.956 155.392 175.483 155.716 175.564Z" fill="#C27B55"/>
<path d="M153.232 167.977C152.679 166.978 151.248 166.829 150.451 167.626C150.384 167.693 150.127 168.017 150.046 168.112C149.952 168.233 149.776 168.463 149.736 168.503C149.641 168.638 149.574 168.787 149.493 168.935L149.331 169.313C149.331 169.3 149.317 169.327 149.29 169.381C149.209 169.462 149.128 169.556 149.047 169.651C148.804 169.907 148.561 170.164 148.372 170.461C147.805 171.365 148.264 172.378 149.02 172.945C150.195 173.822 151.896 173.12 152.719 172.121C153.745 170.92 154.015 169.381 153.232 167.977Z" fill="#F8D5C3"/>
<path d="M224.85 214.849C223.5 214.039 222.285 213.364 221.205 212.419C221.205 212.284 221.205 212.014 221.07 211.879C212.295 203.509 207.3 193.924 204.6 183.799C204.6 182.989 204.465 182.179 204.465 181.369C204.465 181.504 204.6 181.639 204.6 181.774C205.14 183.934 205.68 185.959 206.355 187.984C206.49 188.254 206.625 188.254 206.76 188.254C207.975 191.359 209.595 194.329 211.35 197.164C212.43 199.054 213.78 200.809 215.265 202.564C215.4 202.699 215.535 202.699 215.67 202.699C216.48 203.644 217.29 204.454 218.1 205.399C218.505 205.804 219.18 205.129 218.775 204.724C217.425 203.104 216.21 201.484 215.13 199.864C207.435 186.364 206.49 171.919 207.84 157.069C210 148.834 212.565 140.734 214.59 132.364C214.59 132.094 214.725 131.959 214.725 131.689L214.86 131.554C216.345 127.234 217.155 122.914 217.425 118.459C217.695 116.704 217.83 114.949 217.83 113.059C217.965 106.579 217.695 97.5338 213.645 91.7288C213.78 91.1888 213.645 90.6488 213.51 90.1088C212.835 88.6238 212.025 87.1388 211.215 85.9238C208.785 79.1738 204.6 72.9638 200.01 67.5638C198.12 65.2688 196.095 63.2438 194.07 61.4888C186.78 53.6588 176.655 48.2588 165.72 46.3688C147.225 43.2638 117.93 49.4738 118.2 72.9638C108.48 69.9938 97.4099 74.7188 90.9299 82.1438C87.1499 86.4638 84.8549 91.4588 83.6399 96.8588C80.9399 103.069 79.9949 109.819 80.6699 116.704C80.5349 118.864 80.8049 121.024 81.3449 123.184C81.6149 126.694 82.0199 130.339 82.1549 133.849C82.1549 134.119 82.5599 134.254 82.6949 133.984C83.2349 132.769 83.6399 131.554 83.7749 130.339C84.8549 132.904 86.4749 135.334 88.7699 137.224L88.9049 137.359C89.1749 137.764 89.3099 138.034 89.5799 138.439C90.1199 139.654 90.6599 140.869 91.0649 142.219L91.4699 143.839C91.3349 143.839 91.3349 143.974 91.3349 144.109C91.6049 144.784 91.7399 145.324 92.0099 145.999C92.9549 150.049 93.8999 153.964 94.7099 158.014C95.9249 167.734 94.9799 177.184 94.1699 187.444C94.1699 187.849 94.4399 188.119 94.8449 188.119V188.929C94.7099 189.604 94.7099 190.279 94.5749 190.819C94.5749 191.224 95.2499 191.494 95.2499 191.089C95.5199 190.009 95.7899 188.929 95.9249 187.984C103.215 172.459 99.1649 155.449 97.6799 138.979C95.7899 118.054 101.055 97.1288 123.87 93.2138C124.275 93.2138 124.68 93.3488 125.22 93.4838C126.03 93.6188 126.705 92.8088 126.3 92.1338C126.165 91.8638 125.895 91.5938 125.76 91.4588C125.895 91.4588 126.03 91.4588 126.165 91.3238C126.3 91.5938 126.3 91.7288 126.435 91.9988C126.57 92.2688 126.975 92.2688 127.245 91.9988C127.515 92.2688 127.65 92.5388 128.055 92.8088C128.73 93.4838 130.08 92.8088 129.945 91.8638H130.62C130.89 92.2688 131.43 91.9988 131.43 91.5938L131.565 91.4588C132.375 92.1338 133.32 92.6738 134.535 92.8088C135.075 92.8088 135.48 92.1338 135.345 91.7288C135.48 91.7288 135.48 91.5938 135.48 91.5938C136.425 92.6738 137.505 93.4838 138.72 94.2938C139.8 94.9688 140.745 93.6188 140.205 92.6738C140.88 93.2138 141.555 93.7538 142.635 94.0238C143.31 94.2938 143.85 93.7538 143.985 93.2138C144.12 93.2138 144.12 93.3488 144.255 93.3488C144.66 94.0238 145.2 94.8338 145.74 95.3738C146.685 96.3188 148.44 95.3738 148.035 94.0238C148.71 94.8338 150.195 94.8338 150.465 93.8888C150.87 94.4288 151.275 94.8338 151.815 95.2388C152.625 95.7788 154.11 95.5088 153.975 94.2938C153.975 93.8888 153.84 93.4838 153.84 93.0788C154.11 93.7538 154.515 94.4288 154.92 94.9688C155.46 95.6438 156.945 95.1038 156.81 94.1588C156.675 93.2138 156.81 92.2688 156.81 91.4588C157.08 91.3238 157.35 91.1888 157.485 91.0538C157.35 91.8638 157.35 92.8088 157.485 93.6188C157.755 94.8338 159.78 94.8338 159.915 93.6188C160.05 92.6738 160.32 91.7288 160.86 90.9188C160.59 91.5938 160.455 92.2688 160.455 93.0788C160.455 94.4288 162.345 95.1038 163.02 93.7538C163.425 93.0788 163.83 92.4038 164.37 91.7288V92.6738C164.505 94.0238 165.99 94.4288 166.8 93.3488C167.475 92.2688 168.285 91.4588 169.095 90.7838C168.69 91.3238 168.285 91.9988 168.15 92.6738C168.015 93.3488 168.69 94.0238 169.365 93.6188C169.635 93.3488 170.04 93.2138 170.445 92.9438C170.58 93.0788 170.85 93.2138 171.255 93.2138C172.605 92.9438 174.09 92.8088 175.575 92.8088C181.11 93.2138 185.565 95.6438 189.48 99.2888C192.99 104.689 195.42 111.169 196.77 116.569C198.12 122.239 198.255 127.909 197.58 133.444C191.775 152.479 185.16 176.914 193.8 195.544C195.285 201.889 197.85 207.964 202.035 213.364C202.305 213.634 202.71 213.364 202.575 213.094C200.01 209.044 198.12 204.994 196.77 200.809C198.66 203.509 200.82 206.074 203.52 208.504C205.68 210.529 208.11 212.284 210.945 213.769C212.025 214.309 213.105 213.904 213.78 213.094C215.805 214.444 217.965 215.389 220.26 216.064C220.53 216.199 220.8 215.929 220.8 215.794C221.205 215.929 221.61 216.199 221.88 216.334C222.555 216.604 222.96 216.064 222.825 215.524C222.96 215.524 222.96 215.659 223.095 215.659C223.365 215.794 223.5 215.659 223.635 215.524C224.04 215.659 224.445 215.929 224.85 216.064C224.985 215.929 225.39 215.119 224.85 214.849ZM97.5449 156.259C97.4099 155.449 97.2749 154.639 97.0049 153.829C96.8699 152.614 96.7349 151.399 96.5999 150.319C96.5999 149.509 96.4649 148.699 96.3299 148.024C96.0599 146.404 95.9249 144.784 95.7899 143.299C95.3849 138.979 95.5199 134.659 95.5199 130.339V129.934C95.3849 138.709 96.7349 147.484 97.5449 156.259ZM109.02 74.1788C101.325 75.7988 94.0349 81.7388 89.4449 87.4088C93.8999 80.2538 100.92 75.2588 110.1 73.9088C109.695 73.9088 109.425 74.0438 109.02 74.1788ZM203.115 148.564C202.575 152.884 202.17 157.204 202.17 161.659C202.035 162.604 202.035 163.549 201.9 164.494C201.765 160.984 201.765 157.609 201.765 154.099C202.17 152.074 202.575 150.319 203.115 148.564ZM205.68 153.964L205.275 158.014C205.275 158.149 205.14 158.284 205.14 158.419C205.275 155.584 205.545 152.749 205.815 150.049C206.085 149.104 206.22 148.294 206.49 147.349C206.22 149.644 205.95 151.804 205.68 153.964ZM118.2 74.7188C117.12 74.0438 115.77 73.6388 114.555 73.6388C115.77 73.6388 116.985 73.6388 118.2 73.7738V74.7188ZM126.03 62.5688C122.925 64.7288 120.36 67.5638 119.145 70.6688C122.925 48.3938 150.735 43.8038 169.635 48.6638C175.98 50.2838 181.92 53.1188 186.915 56.7638C183 54.6038 178.545 53.1188 173.685 52.4438C172.875 52.3088 172.065 52.1738 171.255 52.1738C170.715 52.0388 170.175 51.9038 169.5 51.7688C156.54 48.7988 134.67 50.5538 126.03 62.5688ZM142.095 56.7638H141.69C140.475 56.8988 139.26 57.0338 137.91 57.3038C148.035 52.9838 160.86 52.9838 171.255 54.1988C171.795 54.1988 172.335 54.3338 172.875 54.4688C173.01 54.4688 173.145 54.6038 173.415 54.6038C183.27 57.7088 192.585 63.3788 199.335 70.9388C199.47 71.0738 199.47 71.2088 199.605 71.4788C198.795 70.6688 197.985 69.9938 197.175 69.3188C190.155 61.0838 179.085 55.9538 168.69 54.6038C160.05 53.2538 150.735 54.0638 142.095 56.7638ZM199.065 184.339C199.335 185.149 199.47 185.959 199.74 186.634C200.55 190.819 201.9 195.004 203.655 198.649C201.225 194.194 199.74 189.334 199.065 184.339ZM203.925 192.169C202.44 187.849 201.36 183.394 200.955 178.669C201.495 181.504 202.17 184.339 202.98 187.039C203.52 189.469 204.195 192.034 205.14 194.464C204.735 193.789 204.33 192.979 203.925 192.169Z" fill="#DDBC9B"/>
<path d="M222.825 205.534C213.645 199.999 208.515 192.709 205.68 184.474C201.9 170.839 202.575 156.664 204.87 142.354C207.165 127.504 210.27 111.439 204.465 96.9938C204.195 92.6738 203.52 88.4888 201.9 84.4388C196.5 71.0738 182.73 62.7038 168.555 63.6488C156.675 64.4588 138.855 70.9388 135.75 83.7638C135.345 84.9788 135.21 86.1938 135.21 87.5438V88.6238C135.21 88.7588 135.345 88.8938 135.48 89.0288C135.75 90.7838 136.425 92.9438 138.045 93.6188C138.315 93.7538 138.855 93.3488 138.45 93.0788L137.775 92.4038V92.1338C137.505 91.8638 137.37 91.4588 137.235 91.1888C136.965 90.3788 136.695 89.4338 136.56 88.6238V87.8138C136.695 89.4338 137.235 91.1888 138.18 92.8088C138.45 93.2138 139.26 92.9438 138.99 92.5388C138.45 91.3238 138.18 90.1088 138.045 88.8938C138.315 90.3788 138.855 91.8638 139.665 93.2138C139.935 93.4838 140.475 93.3488 140.34 92.9438C140.205 92.4038 139.935 91.8638 139.8 91.4588C140.07 91.5938 140.205 91.7288 140.475 91.8638C140.475 92.1338 140.61 92.4038 140.61 92.6738C140.745 93.0788 141.555 93.0788 141.42 92.5388V91.8638C141.555 91.7288 141.555 91.5938 141.555 91.4588C141.69 91.4588 141.96 91.4588 141.96 91.1888C142.095 88.3538 142.77 85.7888 143.85 83.4938C142.77 85.7888 142.365 88.4888 142.77 91.4588C142.905 91.9988 143.58 91.8638 143.58 91.3238C143.445 81.6038 150.195 76.0688 158.835 73.9088C152.22 77.9588 147.9 85.6538 151.005 94.4288C151.14 94.8338 151.95 94.8338 151.95 94.2938C151.275 87.0038 152.355 79.1738 159.51 75.1238L161.13 74.3138C155.595 78.9038 154.92 87.1388 156.54 93.8888C156.675 94.4288 157.485 94.2938 157.485 93.7538C156.945 86.8688 157.08 78.3638 163.965 74.4488C165.315 73.6388 166.8 73.2338 168.285 72.9638C170.31 72.9638 172.335 73.2338 174.36 73.5038C176.79 74.0438 178.95 75.1238 180.84 76.3388C180.03 76.2038 179.22 76.2038 178.41 76.2038C168.96 75.9338 156.54 82.2788 158.16 93.2138C158.295 93.8888 159.24 93.6188 159.24 93.0788C160.455 78.7688 175.845 76.8788 186.915 81.3338C188.265 82.8188 189.48 84.5738 190.29 86.1938C190.425 86.4638 190.695 86.4638 190.965 86.1938C191.505 87.5438 192.045 88.7588 192.45 90.1088C190.965 89.0288 189.345 87.9488 187.725 87.1388C185.43 85.9238 182.595 85.2488 179.895 85.3838C174.765 84.9788 169.23 86.1938 167.34 91.3238C166.935 91.8638 166.53 92.4038 166.125 93.0788C165.72 93.7538 166.665 94.1588 167.07 93.6188C168.555 91.7288 170.31 90.5138 172.335 89.7038C171.39 90.3788 170.715 91.1888 170.04 92.2688C169.77 92.8088 170.445 93.2138 170.85 92.8088L172.47 91.5938C172.47 91.7288 172.605 91.8638 172.605 91.8638C172.47 91.8638 172.47 91.9988 172.335 91.9988C171.93 92.2688 172.2 92.9438 172.605 92.8088C173.145 92.5388 173.685 92.4038 174.225 92.2688C174.36 92.5388 174.495 92.6738 174.765 92.6738C188.13 90.6488 192.855 99.5588 194.475 110.494V112.384C194.475 112.519 194.61 112.654 194.745 112.654C195.69 121.159 195.015 130.744 195.15 137.224C190.83 163.009 189.21 201.889 219.18 212.554C219.72 212.689 219.99 212.014 219.45 211.744C210.405 207.694 204.33 201.079 200.415 193.114L201.225 194.329C202.71 197.164 204.6 199.729 206.895 202.159C207.165 202.429 207.84 202.024 207.57 201.619C207.435 201.349 207.3 201.214 207.165 200.944C207.57 201.349 207.975 201.754 208.515 202.159C208.785 202.429 209.19 202.024 208.92 201.754C207.165 199.999 205.68 198.244 204.33 196.354C195.015 180.019 195.42 161.794 200.145 143.299C200.685 141.409 201.225 139.384 201.765 137.494C201.495 143.164 200.955 148.834 200.82 154.504C200.415 167.194 201.765 182.179 208.515 193.384C209.325 194.869 210.135 196.489 211.08 197.974C211.215 198.244 211.62 197.974 211.485 197.704C211.35 197.569 211.35 197.434 211.35 197.299C214.32 201.079 218.1 204.184 222.96 206.344C222.825 206.614 223.23 205.939 222.825 205.534ZM140.205 89.7038C137.91 86.3288 144.525 77.2838 145.875 75.7988C147.495 74.1788 149.25 72.8288 151.275 71.7488L152.895 71.3438C145.605 75.1238 139.935 81.8738 140.205 89.7038ZM144.795 81.4688C148.98 74.8538 157.08 71.0738 165.585 70.9388H167.34C159.24 71.4788 149.25 74.7188 144.795 81.4688ZM189.345 79.3088C187.86 77.9588 186.375 76.6088 184.62 75.5288C178.14 69.8588 170.04 66.2138 161.265 66.6188C169.365 64.5938 178.005 64.9988 185.43 69.0488C194.61 74.0438 198.93 81.7388 200.955 90.3788C197.985 85.9238 194.07 82.0088 189.345 79.3088ZM197.445 116.839C197.31 112.654 196.77 108.469 195.42 104.689V101.719C195.825 102.394 196.095 103.069 196.5 103.744C196.77 104.419 197.04 105.229 197.31 105.904C197.58 109.549 197.58 113.194 197.445 116.839ZM195.555 90.2438C195.42 89.8388 195.15 89.4338 194.88 88.8938C196.365 91.4588 197.715 94.2938 198.795 97.1288C198.39 96.5888 197.985 96.0488 197.58 95.3738C197.04 93.7538 196.365 91.9988 195.555 90.2438ZM188.265 94.0238C190.29 95.2388 192.18 96.9938 193.665 99.0188C193.8 99.6938 193.8 100.234 193.8 100.909C192.585 98.2088 190.56 95.9138 188.265 94.0238ZM194.745 151.939C194.745 151.534 194.88 151.129 194.88 150.589C195.69 143.974 197.04 137.359 198.12 130.744C198.255 130.744 198.39 130.609 198.39 130.474C199.74 125.884 200.55 120.889 200.685 115.894C201.09 118.729 201.225 121.564 201.36 124.264C199.875 133.714 196.77 142.624 194.745 151.939ZM202.44 112.924C201.9 109.819 201.09 106.849 200.01 104.014C200.145 104.014 200.28 103.879 200.28 103.744C200.28 102.799 200.145 101.989 200.01 101.179C200.145 101.449 200.28 101.719 200.55 101.989C201.495 105.634 202.17 109.279 202.44 112.924ZM199.605 94.8338C198.795 92.8088 197.85 90.9188 196.77 89.1638C199.2 92.1338 200.955 95.5088 202.17 99.0188C202.305 100.369 202.305 101.854 202.44 103.204C201.765 100.369 200.82 97.5338 199.605 94.8338ZM203.655 127.234C204.195 124.399 204.465 121.429 204.6 118.459C204.6 116.569 204.465 114.814 204.33 112.924C204.33 111.709 204.465 110.494 204.465 109.279V107.119C205.545 113.734 205.545 120.484 205.005 126.964C204.465 133.444 203.655 139.924 202.98 146.404C203.25 139.924 203.655 133.444 203.655 127.234ZM121.44 92.9438C103.35 84.8438 90.6599 108.874 92.0099 123.589C92.0099 123.859 92.4149 123.859 92.4149 123.589C92.4149 115.489 93.7649 107.659 99.0299 101.314C104.43 94.6988 112.8 90.7838 121.17 93.4838C121.44 93.6188 121.71 93.0788 121.44 92.9438ZM205.95 164.224C205.545 152.614 208.65 142.354 212.295 131.554C218.235 113.734 219.045 91.8638 207.435 75.9338C197.31 62.1638 177.06 58.3838 160.995 60.6788C146.01 62.8388 131.025 73.5038 131.835 89.9738C131.835 90.5138 132.645 90.5138 132.645 89.9738C132.78 66.8888 157.485 59.7338 176.52 61.7588C185.97 62.8388 196.095 65.8088 202.98 72.5588C210.405 79.8488 213.915 90.5138 214.995 100.639C216.21 110.764 214.59 120.484 211.485 130.069C208.92 137.764 206.22 145.189 205.14 153.154C203.25 168.679 206.625 184.339 214.725 197.704C214.995 198.109 215.535 197.704 215.4 197.299C209.865 187.174 206.49 175.969 205.95 164.224ZM159.645 53.9288C142.365 56.3588 123.87 69.9938 127.11 89.5688C127.11 89.8388 127.65 89.8388 127.65 89.4338C126.57 69.5888 141.96 58.3838 159.78 54.4688C160.185 54.3338 160.05 53.7938 159.645 53.9288ZM130.215 64.4588C124.545 70.5338 121.305 78.9038 124.275 87.0038C124.41 87.2738 124.815 87.1388 124.68 86.8688C122.385 78.4988 125.895 71.4788 130.62 64.7288C130.89 64.4588 130.485 64.1888 130.215 64.4588ZM140.61 54.8738C129.945 58.2488 119.82 66.3488 120.09 78.4988C120.09 78.7688 120.495 78.7688 120.495 78.4988C121.17 66.3488 130.755 59.7338 140.88 55.4138C141.15 55.2788 140.88 54.7388 140.61 54.8738ZM123.6 91.1888C117.255 85.3838 109.02 88.4888 102.405 92.2688C93.4949 97.2638 87.1499 103.744 85.7999 114.274C84.3149 126.019 88.9049 137.899 92.1449 148.969C96.1949 163.144 98.8949 178.129 91.4699 191.899C91.1999 192.439 92.0099 192.979 92.2799 192.439C102.135 175.969 95.6549 157.069 90.7949 140.194C87.5549 128.989 83.9099 115.894 89.8499 104.959C95.1149 95.5088 112.935 84.5738 123.06 91.8638C123.465 91.8638 123.87 91.4588 123.6 91.1888ZM119.01 85.1138C106.725 75.9338 91.1999 90.6488 87.6899 101.989C87.5549 102.259 88.0949 102.394 88.2299 102.124C92.6849 90.9188 105.915 78.4988 118.74 85.6538C119.01 85.9238 119.415 85.3838 119.01 85.1138ZM117.93 82.0088C115.095 77.5538 109.425 78.3638 105.375 80.5238C105.105 80.6588 105.24 81.0638 105.51 80.9288C109.56 79.4438 114.555 78.0938 117.66 82.1438C117.66 82.2788 118.065 82.1438 117.93 82.0088Z" fill="#CEA57C"/>
<path d="M201.225 74.1788C200.955 73.9088 200.685 74.3138 200.82 74.5838C210.945 87.5438 214.725 102.934 212.43 119.134C212.295 119.674 213.105 119.809 213.24 119.404C217.29 103.204 212.295 86.0588 201.225 74.1788ZM210.675 99.9638C210.675 99.8288 210.27 99.8288 210.405 99.9638C211.755 114.544 210.54 128.584 207.57 142.894C207.435 143.299 207.975 143.434 208.11 143.029C212.16 129.124 212.835 114.409 210.675 99.9638ZM196.5 76.4738C188.13 66.6188 172.605 61.8938 160.185 64.3238C149.52 66.3488 133.185 74.5838 133.86 87.2738C133.86 87.9488 134.805 87.9488 134.805 87.2738C135.21 71.2088 160.05 63.5138 172.875 65.8088C179.76 67.0238 186.915 70.2638 192.315 74.8538C199.065 80.3888 201.63 89.2988 203.25 97.5338C206.355 113.734 202.98 128.584 198.66 144.109C195.42 155.989 192.855 168.139 196.635 180.289C196.77 180.694 197.445 180.559 197.31 180.154C192.18 159.634 202.845 141.139 205.545 121.159C207.3 107.389 206.085 87.5438 196.5 76.4738ZM121.575 91.3238C106.455 88.6238 96.195 102.934 94.305 116.299C91.605 135.874 101.055 154.504 97.41 173.944C98.22 163.954 96.87 153.829 93.495 144.244C93.495 144.109 93.09 144.109 93.225 144.379C98.49 161.389 97.815 178.669 91.74 195.409C91.605 195.679 92.01 195.814 92.145 195.544C94.44 190.009 96.06 184.204 96.87 178.399L97.005 178.264C102.945 163.414 97.68 147.619 95.79 132.364C93.63 114.949 98.76 90.3788 121.44 92.2688C121.98 92.1338 121.98 91.4588 121.575 91.3238ZM119.28 86.0588C105.375 81.8738 92.82 91.8638 88.095 104.419C87.96 104.689 88.365 104.824 88.5 104.554C94.305 92.2688 104.97 83.8988 119.145 86.5988C119.55 86.7338 119.685 86.0588 119.28 86.0588ZM117.525 79.9838C107.265 77.9588 99.03 79.0388 92.415 87.6788C86.88 94.8338 84.585 103.744 85.935 112.519C85.935 112.789 86.34 112.654 86.34 112.519C85.8 104.959 87.15 97.1288 91.335 90.6488C97.68 80.7938 106.05 79.0388 117.255 80.6588C117.795 80.7938 117.93 80.1188 117.525 79.9838ZM189.21 67.8338C168.825 47.9888 132.375 60.0038 128.595 88.3538C128.595 88.7588 129.135 88.8938 129.135 88.4888C135.885 60.8138 166.395 50.0138 188.805 68.1038C189.075 68.3738 189.345 68.1038 189.21 67.8338ZM126.975 75.9338C124.68 78.9038 122.385 82.6838 124.68 86.1938C124.815 86.4638 125.22 86.1938 125.085 85.9238C123.06 82.5488 125.355 79.0388 127.245 76.0688C127.245 75.9338 127.11 75.7988 126.975 75.9338ZM218.775 210.664C207.705 197.299 200.82 181.774 200.55 164.359C200.55 164.089 200.28 164.089 200.28 164.359C200.145 181.639 206.085 198.784 218.505 211.069C218.64 211.069 218.91 210.799 218.775 210.664ZM213.915 208.639C206.895 204.049 201.63 198.244 198.525 190.279C198.39 189.874 197.85 190.009 197.985 190.414C200.55 198.379 206.085 205.399 213.645 209.044C213.915 209.314 214.185 208.909 213.915 208.639Z" fill="#ECD5BD"/>
</g>
<defs>
<clipPath id="clip0_21_684">
<rect width="300" height="300" fill="white"/>
</clipPath>
</defs>
</svg>
