<svg width="24" height="25" viewBox="0 0 24 25" fill="none" xmlns="http://www.w3.org/2000/svg">
<g clip-path="url(#clip0_127_748)">
<path d="M23.5474 11.04L13.0686 0.562042C12.4656 -0.0415141 11.4868 -0.0415141 10.883 0.562042L8.70706 2.73795L11.4673 5.4982C12.1088 5.28148 12.8443 5.42683 13.3557 5.93823C13.8694 6.45278 14.0137 7.19458 13.7917 7.83816L16.4519 10.4983C17.0955 10.2766 17.8381 10.4201 18.3521 10.9349C19.0705 11.6531 19.0705 12.817 18.3521 13.5356C17.6335 14.2542 16.4696 14.2542 15.7507 13.5356C15.2103 12.9947 15.0768 12.201 15.3504 11.5353L12.8695 9.05449L12.8693 15.583C13.0444 15.6699 13.2098 15.7855 13.3557 15.9309C14.074 16.649 14.074 17.8129 13.3557 18.5321C12.637 19.2504 11.4726 19.2504 10.755 18.5321C10.0366 17.8129 10.0366 16.649 10.755 15.9309C10.9325 15.7537 11.1379 15.6196 11.357 15.5296V8.94021C11.1379 8.85068 10.9327 8.71743 10.755 8.53889C10.2107 7.99537 10.0798 7.19669 10.3587 6.52835L7.63794 3.80708L0.452926 10.9916C-0.150894 11.5956 -0.150894 12.5745 0.452926 13.178L10.9317 23.6562C11.535 24.2598 12.5135 24.2598 13.1176 23.6562L23.5474 13.2267C24.1509 12.6229 24.1509 11.6436 23.5474 11.04Z" fill="#DE4C36"/>
</g>
<defs>
<clipPath id="clip0_127_748">
<rect width="24" height="24" fill="white" transform="translate(0 0.109375)"/>
</clipPath>
</defs>
</svg>
