<svg width="24" height="28" viewBox="0 0 24 28" fill="none" xmlns="http://www.w3.org/2000/svg">
<g clip-path="url(#clip0_127_681)">
<path d="M22.4974 13.7847C22.4974 12.4221 21.3929 11.3175 20.0303 11.3175C19.9426 11.3175 19.8562 11.3222 19.771 11.3311L23.1596 1.33691H8.7592L12.143 11.3225C12.0934 11.3195 12.0435 11.3175 11.9931 11.3175C10.6305 11.3175 9.52599 12.4221 9.52599 13.7847C9.52599 14.886 10.2478 15.8185 11.244 16.1357C10.7178 17.0472 10.0558 17.868 9.30408 18.5772C8.28192 19.5415 7.11211 20.2726 5.84695 20.7232C4.34058 19.9494 3.6292 18.2283 4.27111 16.7194C4.34358 16.5491 4.41755 16.3763 4.48833 16.2044C5.57958 15.9496 6.39277 14.9713 6.39277 13.8024C6.39277 12.4398 5.28821 11.3353 3.92564 11.3353C2.56299 11.3353 1.45842 12.4398 1.45842 13.8024C1.45842 14.638 1.8742 15.3759 2.50964 15.8222C1.89895 17.2126 1.00139 18.6676 0.721736 20.354C0.38658 22.3752 0.720705 24.5205 2.46867 25.7321C6.53967 28.5536 10.9587 23.983 15.618 22.834C17.3065 22.4175 19.16 22.4847 20.6477 21.623C21.765 20.9759 22.5015 19.9036 22.7105 18.6997C22.917 17.5104 22.6159 16.3262 21.9237 15.366C22.2817 14.9378 22.4974 14.3865 22.4974 13.7847ZM14.46 13.7934C14.46 13.7905 14.4603 13.7876 14.4603 13.7847C14.4603 12.8899 13.9839 12.1064 13.271 11.6739L15.9643 6.22785L18.6622 11.7316C17.9997 12.1739 17.5631 12.9283 17.5631 13.7847C17.5631 13.8027 17.5641 13.8204 17.5645 13.8383L14.46 13.7934Z" fill="#C63D14"/>
<path d="M23.0999 13.7847C23.0999 12.2861 22.0202 11.0356 20.5979 10.7685L24 0.734375H7.91869L11.3259 10.7889C9.95316 11.0944 8.92341 12.3212 8.92341 13.7847C8.92341 14.8837 9.50419 15.849 10.3747 16.3915C9.95597 17.0152 9.45947 17.6022 8.8905 18.1389C7.98825 18.9901 6.98297 19.6357 5.89922 20.0604C4.80769 19.3747 4.34625 18.0817 4.8255 16.9552L4.863 16.8671C4.88644 16.8119 4.90997 16.7566 4.93341 16.7013C6.13228 16.2833 6.99525 15.1421 6.99525 13.8024C6.99525 12.1097 5.61816 10.7327 3.9255 10.7327C2.23285 10.7327 0.855847 12.1097 0.855847 13.8024C0.855847 14.6567 1.20694 15.4303 1.77207 15.9874C1.6696 16.2058 1.56188 16.4278 1.45116 16.6553C0.93441 17.7166 0.348753 18.9196 0.127222 20.2555C-0.312747 22.9085 0.396847 25.0293 2.12532 26.2273C3.17419 26.9542 4.23928 27.2401 5.31113 27.24C7.32947 27.2399 9.37107 26.226 11.3679 25.2342C12.8062 24.5199 14.2932 23.7812 15.7622 23.419C16.3088 23.2842 16.8712 23.2031 17.4666 23.1172C18.6473 22.9468 19.8683 22.7708 20.9498 22.1444C22.2033 21.4183 23.0615 20.2003 23.3041 18.8028C23.5124 17.6031 23.2616 16.4016 22.6502 15.3825C22.9353 14.9168 23.0999 14.3697 23.0999 13.7847ZM21.8948 13.7847C21.8948 14.8128 21.0584 15.6493 20.0302 15.6493C19.0021 15.6493 18.1656 14.8128 18.1656 13.7847C18.1656 12.7565 19.0021 11.9201 20.0302 11.9201C21.0584 11.9201 21.8948 12.7565 21.8948 13.7847ZM22.319 1.93944L19.3148 10.8C19.1845 10.8312 19.0576 10.8706 18.9343 10.918L15.9666 4.86378L12.9902 10.8822C12.8616 10.8378 12.7292 10.8013 12.5934 10.7743L9.59953 1.93944H22.319ZM11.9931 11.9201C13.0212 11.9201 13.8577 12.7565 13.8577 13.7847C13.8577 14.8128 13.0212 15.6493 11.9931 15.6493C10.965 15.6493 10.1285 14.8128 10.1285 13.7847C10.1285 12.7565 10.965 11.9201 11.9931 11.9201ZM3.9255 11.9378C4.95375 11.9378 5.79019 12.7742 5.79019 13.8024C5.79019 14.8305 4.95375 15.6671 3.9255 15.6671C2.89744 15.6671 2.06091 14.8305 2.06091 13.8024C2.06091 12.7742 2.89744 11.9378 3.9255 11.9378ZM22.1168 18.5967C21.9353 19.6418 21.2898 20.5548 20.3457 21.1016C19.4657 21.6113 18.4111 21.7634 17.2945 21.9244C16.6964 22.0107 16.0778 22.0999 15.4736 22.249C13.8759 22.6429 12.3284 23.4116 10.8319 24.1549C7.83703 25.6424 5.25057 26.927 2.81185 25.2368C1.02544 23.9987 1.10794 21.7079 1.31607 20.4526C1.50891 19.2897 2.03035 18.2186 2.53463 17.1827C2.62191 17.0035 2.70666 16.8279 2.78982 16.6534C3.03994 16.7534 3.30591 16.8216 3.58313 16.8525C3.06985 18.5467 3.87713 20.3887 5.57147 21.2592L5.80332 21.3783L6.04894 21.2908C7.38844 20.8138 8.62266 20.0483 9.71747 19.0154C10.4252 18.3478 11.0333 17.6092 11.5334 16.8199C11.6834 16.8425 11.8369 16.8544 11.9931 16.8544C13.6857 16.8544 15.0628 15.4774 15.0628 13.7847C15.0628 12.8743 14.6641 12.0557 14.0326 11.493L15.9618 7.59191L17.9106 11.5674C17.3258 12.1267 16.9605 12.9135 16.9605 13.7847C16.9605 15.4774 18.3375 16.8544 20.0302 16.8544C20.6805 16.8544 21.2838 16.6506 21.7807 16.3043C22.1257 17.0105 22.2542 17.8051 22.1168 18.5967Z" fill="white"/>
</g>
<defs>
<clipPath id="clip0_127_681">
<rect width="24" height="26.5312" fill="white" transform="translate(0 0.734375)"/>
</clipPath>
</defs>
</svg>
