<svg width="24" height="24" viewBox="0 0 24 24" fill="none" xmlns="http://www.w3.org/2000/svg">
<path d="M21 8.65C21 18.9 12 22 12 22C12 22 3 18.9 3 8.65C3 7.4 3.1 6.35 3.2 5.5C3.35 4.25 4.2 3.25 5.4 2.95C6.95 2.5 9.4 2 12 2C14.6 2 17.05 2.5 18.65 2.95C19.85 3.25 20.7 4.3 20.85 5.5C20.9 6.35 21 7.45 21 8.65Z" fill="#5D4037"/>
<path d="M12 3.5C14.45 3.5 16.75 4 18.25 4.4C18.85 4.55 19.25 5.05 19.35 5.7C19.45 6.65 19.5 7.65 19.5 8.65C19.5 16.45 13.75 19.6 12 20.35C10.25 19.55 4.5 16.4 4.5 8.65C4.5 7.65 4.55 6.65 4.65 5.7C4.7 5.05 5.15 4.55 5.75 4.4C7.25 4 9.55 3.5 12 3.5ZM12 2C9.4 2 6.95 2.5 5.35 2.95C4.2 3.25 3.3 4.3 3.2 5.5C3.1 6.35 3 7.45 3 8.65C3 18.9 12 22 12 22C12 22 21 18.9 21 8.65C21 7.4 20.9 6.35 20.8 5.5C20.65 4.25 19.8 3.25 18.6 2.95C17.05 2.5 14.6 2 12 2Z" fill="#4CAF50"/>
<path d="M11.5 14H12.5V18H11.5V14Z" fill="#DCEDC8"/>
<path d="M12 5C12 5 9 7.5 9 11.5C9 14.1 10.65 15.75 11.5 16.5L12 15L12.5 16.5C13.35 15.75 15 14.1 15 11.5C15 7.5 12 5 12 5Z" fill="#4CAF50"/>
<path d="M12 5C12 5 9 7.5 9 11.5C9 14.1 10.65 15.75 11.5 16.5L12 15V5Z" fill="#81C784"/>
</svg>
